<?xml version="1.0" encoding="utf-8"?>
<svg xmlns="http://www.w3.org/2000/svg" xmlns:xlink="http://www.w3.org/1999/xlink" width="600" height="400" viewBox="0 0 2400 1600">
<defs>
  <clipPath id="clip560">
    <rect x="0" y="0" width="2400" height="1600"/>
  </clipPath>
</defs>
<path clip-path="url(#clip560)" d="M0 1600 L2400 1600 L2400 0 L0 0  Z" fill="#ffffff" fill-rule="evenodd" fill-opacity="1"/>
<defs>
  <clipPath id="clip561">
    <rect x="480" y="0" width="1681" height="1600"/>
  </clipPath>
</defs>
<path clip-path="url(#clip560)" d="M287.366 356.513 L2352.76 356.513 L2352.76 123.472 L287.366 123.472  Z" fill="#ffffff" fill-rule="evenodd" fill-opacity="1"/>
<defs>
  <clipPath id="clip562">
    <rect x="287" y="123" width="2066" height="234"/>
  </clipPath>
</defs>
<polyline clip-path="url(#clip562)" style="stroke:#000000; stroke-linecap:round; stroke-linejoin:round; stroke-width:2; stroke-opacity:0.1; fill:none" points="326.139,356.513 326.139,123.472 "/>
<polyline clip-path="url(#clip562)" style="stroke:#000000; stroke-linecap:round; stroke-linejoin:round; stroke-width:2; stroke-opacity:0.1; fill:none" points="818.179,356.513 818.179,123.472 "/>
<polyline clip-path="url(#clip562)" style="stroke:#000000; stroke-linecap:round; stroke-linejoin:round; stroke-width:2; stroke-opacity:0.1; fill:none" points="1310.22,356.513 1310.22,123.472 "/>
<polyline clip-path="url(#clip562)" style="stroke:#000000; stroke-linecap:round; stroke-linejoin:round; stroke-width:2; stroke-opacity:0.1; fill:none" points="1802.26,356.513 1802.26,123.472 "/>
<polyline clip-path="url(#clip562)" style="stroke:#000000; stroke-linecap:round; stroke-linejoin:round; stroke-width:2; stroke-opacity:0.1; fill:none" points="2294.3,356.513 2294.3,123.472 "/>
<polyline clip-path="url(#clip562)" style="stroke:#000000; stroke-linecap:round; stroke-linejoin:round; stroke-width:2; stroke-opacity:0.1; fill:none" points="287.366,331.082 2352.76,331.082 "/>
<polyline clip-path="url(#clip562)" style="stroke:#000000; stroke-linecap:round; stroke-linejoin:round; stroke-width:2; stroke-opacity:0.1; fill:none" points="287.366,294.091 2352.76,294.091 "/>
<polyline clip-path="url(#clip562)" style="stroke:#000000; stroke-linecap:round; stroke-linejoin:round; stroke-width:2; stroke-opacity:0.1; fill:none" points="287.366,257.101 2352.76,257.101 "/>
<polyline clip-path="url(#clip562)" style="stroke:#000000; stroke-linecap:round; stroke-linejoin:round; stroke-width:2; stroke-opacity:0.1; fill:none" points="287.366,220.11 2352.76,220.11 "/>
<polyline clip-path="url(#clip562)" style="stroke:#000000; stroke-linecap:round; stroke-linejoin:round; stroke-width:2; stroke-opacity:0.1; fill:none" points="287.366,183.12 2352.76,183.12 "/>
<polyline clip-path="url(#clip562)" style="stroke:#000000; stroke-linecap:round; stroke-linejoin:round; stroke-width:2; stroke-opacity:0.1; fill:none" points="287.366,146.129 2352.76,146.129 "/>
<polyline clip-path="url(#clip560)" style="stroke:#000000; stroke-linecap:round; stroke-linejoin:round; stroke-width:4; stroke-opacity:1; fill:none" points="287.366,356.513 2352.76,356.513 "/>
<polyline clip-path="url(#clip560)" style="stroke:#000000; stroke-linecap:round; stroke-linejoin:round; stroke-width:4; stroke-opacity:1; fill:none" points="326.139,356.513 326.139,337.616 "/>
<polyline clip-path="url(#clip560)" style="stroke:#000000; stroke-linecap:round; stroke-linejoin:round; stroke-width:4; stroke-opacity:1; fill:none" points="818.179,356.513 818.179,337.616 "/>
<polyline clip-path="url(#clip560)" style="stroke:#000000; stroke-linecap:round; stroke-linejoin:round; stroke-width:4; stroke-opacity:1; fill:none" points="1310.22,356.513 1310.22,337.616 "/>
<polyline clip-path="url(#clip560)" style="stroke:#000000; stroke-linecap:round; stroke-linejoin:round; stroke-width:4; stroke-opacity:1; fill:none" points="1802.26,356.513 1802.26,337.616 "/>
<polyline clip-path="url(#clip560)" style="stroke:#000000; stroke-linecap:round; stroke-linejoin:round; stroke-width:4; stroke-opacity:1; fill:none" points="2294.3,356.513 2294.3,337.616 "/>
<path clip-path="url(#clip560)" d="M326.139 387.432 Q322.528 387.432 320.699 390.997 Q318.893 394.538 318.893 401.668 Q318.893 408.774 320.699 412.339 Q322.528 415.881 326.139 415.881 Q329.773 415.881 331.578 412.339 Q333.407 408.774 333.407 401.668 Q333.407 394.538 331.578 390.997 Q329.773 387.432 326.139 387.432 M326.139 383.728 Q331.949 383.728 335.004 388.335 Q338.083 392.918 338.083 401.668 Q338.083 410.395 335.004 415.001 Q331.949 419.584 326.139 419.584 Q320.329 419.584 317.25 415.001 Q314.194 410.395 314.194 401.668 Q314.194 392.918 317.25 388.335 Q320.329 383.728 326.139 383.728 Z" fill="#000000" fill-rule="nonzero" fill-opacity="1" /><path clip-path="url(#clip560)" d="M797.45 414.978 L813.77 414.978 L813.77 418.913 L791.825 418.913 L791.825 414.978 Q794.487 412.223 799.071 407.594 Q803.677 402.941 804.858 401.598 Q807.103 399.075 807.983 397.339 Q808.885 395.58 808.885 393.89 Q808.885 391.136 806.941 389.399 Q805.02 387.663 801.918 387.663 Q799.719 387.663 797.265 388.427 Q794.835 389.191 792.057 390.742 L792.057 386.02 Q794.881 384.886 797.335 384.307 Q799.788 383.728 801.825 383.728 Q807.196 383.728 810.39 386.413 Q813.585 389.099 813.585 393.589 Q813.585 395.719 812.774 397.64 Q811.987 399.538 809.881 402.131 Q809.302 402.802 806.2 406.02 Q803.098 409.214 797.45 414.978 Z" fill="#000000" fill-rule="nonzero" fill-opacity="1" /><path clip-path="url(#clip560)" d="M823.631 384.353 L841.987 384.353 L841.987 388.288 L827.913 388.288 L827.913 396.761 Q828.932 396.413 829.95 396.251 Q830.969 396.066 831.987 396.066 Q837.774 396.066 841.154 399.237 Q844.533 402.409 844.533 407.825 Q844.533 413.404 841.061 416.506 Q837.589 419.584 831.27 419.584 Q829.094 419.584 826.825 419.214 Q824.58 418.844 822.172 418.103 L822.172 413.404 Q824.256 414.538 826.478 415.094 Q828.7 415.649 831.177 415.649 Q835.182 415.649 837.52 413.543 Q839.858 411.436 839.858 407.825 Q839.858 404.214 837.52 402.108 Q835.182 400.001 831.177 400.001 Q829.302 400.001 827.427 400.418 Q825.575 400.835 823.631 401.714 L823.631 384.353 Z" fill="#000000" fill-rule="nonzero" fill-opacity="1" /><path clip-path="url(#clip560)" d="M1284.92 384.353 L1303.28 384.353 L1303.28 388.288 L1289.2 388.288 L1289.2 396.761 Q1290.22 396.413 1291.24 396.251 Q1292.26 396.066 1293.28 396.066 Q1299.06 396.066 1302.44 399.237 Q1305.82 402.409 1305.82 407.825 Q1305.82 413.404 1302.35 416.506 Q1298.88 419.584 1292.56 419.584 Q1290.38 419.584 1288.11 419.214 Q1285.87 418.844 1283.46 418.103 L1283.46 413.404 Q1285.54 414.538 1287.77 415.094 Q1289.99 415.649 1292.47 415.649 Q1296.47 415.649 1298.81 413.543 Q1301.15 411.436 1301.15 407.825 Q1301.15 404.214 1298.81 402.108 Q1296.47 400.001 1292.47 400.001 Q1290.59 400.001 1288.72 400.418 Q1286.86 400.835 1284.92 401.714 L1284.92 384.353 Z" fill="#000000" fill-rule="nonzero" fill-opacity="1" /><path clip-path="url(#clip560)" d="M1325.03 387.432 Q1321.42 387.432 1319.6 390.997 Q1317.79 394.538 1317.79 401.668 Q1317.79 408.774 1319.6 412.339 Q1321.42 415.881 1325.03 415.881 Q1328.67 415.881 1330.47 412.339 Q1332.3 408.774 1332.3 401.668 Q1332.3 394.538 1330.47 390.997 Q1328.67 387.432 1325.03 387.432 M1325.03 383.728 Q1330.84 383.728 1333.9 388.335 Q1336.98 392.918 1336.98 401.668 Q1336.98 410.395 1333.9 415.001 Q1330.84 419.584 1325.03 419.584 Q1319.22 419.584 1316.15 415.001 Q1313.09 410.395 1313.09 401.668 Q1313.09 392.918 1316.15 388.335 Q1319.22 383.728 1325.03 383.728 Z" fill="#000000" fill-rule="nonzero" fill-opacity="1" /><path clip-path="url(#clip560)" d="M1776.12 384.353 L1798.34 384.353 L1798.34 386.344 L1785.79 418.913 L1780.91 418.913 L1792.71 388.288 L1776.12 388.288 L1776.12 384.353 Z" fill="#000000" fill-rule="nonzero" fill-opacity="1" /><path clip-path="url(#clip560)" d="M1807.5 384.353 L1825.86 384.353 L1825.86 388.288 L1811.79 388.288 L1811.79 396.761 Q1812.8 396.413 1813.82 396.251 Q1814.84 396.066 1815.86 396.066 Q1821.65 396.066 1825.03 399.237 Q1828.41 402.409 1828.41 407.825 Q1828.41 413.404 1824.93 416.506 Q1821.46 419.584 1815.14 419.584 Q1812.97 419.584 1810.7 419.214 Q1808.45 418.844 1806.05 418.103 L1806.05 413.404 Q1808.13 414.538 1810.35 415.094 Q1812.57 415.649 1815.05 415.649 Q1819.05 415.649 1821.39 413.543 Q1823.73 411.436 1823.73 407.825 Q1823.73 404.214 1821.39 402.108 Q1819.05 400.001 1815.05 400.001 Q1813.18 400.001 1811.3 400.418 Q1809.45 400.835 1807.5 401.714 L1807.5 384.353 Z" fill="#000000" fill-rule="nonzero" fill-opacity="1" /><path clip-path="url(#clip560)" d="M2253.91 414.978 L2261.55 414.978 L2261.55 388.612 L2253.24 390.279 L2253.24 386.02 L2261.5 384.353 L2266.18 384.353 L2266.18 414.978 L2273.82 414.978 L2273.82 418.913 L2253.91 418.913 L2253.91 414.978 Z" fill="#000000" fill-rule="nonzero" fill-opacity="1" /><path clip-path="url(#clip560)" d="M2293.26 387.432 Q2289.65 387.432 2287.82 390.997 Q2286.01 394.538 2286.01 401.668 Q2286.01 408.774 2287.82 412.339 Q2289.65 415.881 2293.26 415.881 Q2296.89 415.881 2298.7 412.339 Q2300.53 408.774 2300.53 401.668 Q2300.53 394.538 2298.7 390.997 Q2296.89 387.432 2293.26 387.432 M2293.26 383.728 Q2299.07 383.728 2302.13 388.335 Q2305.2 392.918 2305.2 401.668 Q2305.2 410.395 2302.13 415.001 Q2299.07 419.584 2293.26 419.584 Q2287.45 419.584 2284.37 415.001 Q2281.32 410.395 2281.32 401.668 Q2281.32 392.918 2284.37 388.335 Q2287.45 383.728 2293.26 383.728 Z" fill="#000000" fill-rule="nonzero" fill-opacity="1" /><path clip-path="url(#clip560)" d="M2323.42 387.432 Q2319.81 387.432 2317.98 390.997 Q2316.18 394.538 2316.18 401.668 Q2316.18 408.774 2317.98 412.339 Q2319.81 415.881 2323.42 415.881 Q2327.06 415.881 2328.86 412.339 Q2330.69 408.774 2330.69 401.668 Q2330.69 394.538 2328.86 390.997 Q2327.06 387.432 2323.42 387.432 M2323.42 383.728 Q2329.23 383.728 2332.29 388.335 Q2335.37 392.918 2335.37 401.668 Q2335.37 410.395 2332.29 415.001 Q2329.23 419.584 2323.42 419.584 Q2317.61 419.584 2314.53 415.001 Q2311.48 410.395 2311.48 401.668 Q2311.48 392.918 2314.53 388.335 Q2317.61 383.728 2323.42 383.728 Z" fill="#000000" fill-rule="nonzero" fill-opacity="1" /><path clip-path="url(#clip560)" d="M1336.68 465.729 L1323.78 483.076 L1337.34 501.377 L1330.44 501.377 L1320.06 487.373 L1309.68 501.377 L1302.78 501.377 L1316.62 482.726 L1303.96 465.729 L1310.86 465.729 L1320.32 478.429 L1329.77 465.729 L1336.68 465.729 Z" fill="#000000" fill-rule="nonzero" fill-opacity="1" /><polyline clip-path="url(#clip560)" style="stroke:#000000; stroke-linecap:round; stroke-linejoin:round; stroke-width:4; stroke-opacity:1; fill:none" points="287.366,356.513 287.366,123.472 "/>
<polyline clip-path="url(#clip560)" style="stroke:#000000; stroke-linecap:round; stroke-linejoin:round; stroke-width:4; stroke-opacity:1; fill:none" points="287.366,331.082 306.264,331.082 "/>
<polyline clip-path="url(#clip560)" style="stroke:#000000; stroke-linecap:round; stroke-linejoin:round; stroke-width:4; stroke-opacity:1; fill:none" points="287.366,294.091 306.264,294.091 "/>
<polyline clip-path="url(#clip560)" style="stroke:#000000; stroke-linecap:round; stroke-linejoin:round; stroke-width:4; stroke-opacity:1; fill:none" points="287.366,257.101 306.264,257.101 "/>
<polyline clip-path="url(#clip560)" style="stroke:#000000; stroke-linecap:round; stroke-linejoin:round; stroke-width:4; stroke-opacity:1; fill:none" points="287.366,220.11 306.264,220.11 "/>
<polyline clip-path="url(#clip560)" style="stroke:#000000; stroke-linecap:round; stroke-linejoin:round; stroke-width:4; stroke-opacity:1; fill:none" points="287.366,183.12 306.264,183.12 "/>
<polyline clip-path="url(#clip560)" style="stroke:#000000; stroke-linecap:round; stroke-linejoin:round; stroke-width:4; stroke-opacity:1; fill:none" points="287.366,146.129 306.264,146.129 "/>
<path clip-path="url(#clip560)" d="M114.26 331.533 L143.936 331.533 L143.936 335.469 L114.26 335.469 L114.26 331.533 Z" fill="#000000" fill-rule="nonzero" fill-opacity="1" /><path clip-path="url(#clip560)" d="M164.028 316.881 Q160.417 316.881 158.589 320.445 Q156.783 323.987 156.783 331.117 Q156.783 338.223 158.589 341.788 Q160.417 345.33 164.028 345.33 Q167.663 345.33 169.468 341.788 Q171.297 338.223 171.297 331.117 Q171.297 323.987 169.468 320.445 Q167.663 316.881 164.028 316.881 M164.028 313.177 Q169.839 313.177 172.894 317.783 Q175.973 322.367 175.973 331.117 Q175.973 339.843 172.894 344.45 Q169.839 349.033 164.028 349.033 Q158.218 349.033 155.14 344.45 Q152.084 339.843 152.084 331.117 Q152.084 322.367 155.14 317.783 Q158.218 313.177 164.028 313.177 Z" fill="#000000" fill-rule="nonzero" fill-opacity="1" /><path clip-path="url(#clip560)" d="M184.19 342.482 L189.075 342.482 L189.075 348.362 L184.19 348.362 L184.19 342.482 Z" fill="#000000" fill-rule="nonzero" fill-opacity="1" /><path clip-path="url(#clip560)" d="M199.306 313.802 L217.662 313.802 L217.662 317.737 L203.588 317.737 L203.588 326.209 Q204.607 325.862 205.625 325.7 Q206.644 325.515 207.662 325.515 Q213.449 325.515 216.829 328.686 Q220.209 331.857 220.209 337.274 Q220.209 342.853 216.736 345.955 Q213.264 349.033 206.945 349.033 Q204.769 349.033 202.5 348.663 Q200.255 348.293 197.848 347.552 L197.848 342.853 Q199.931 343.987 202.153 344.543 Q204.375 345.098 206.852 345.098 Q210.857 345.098 213.195 342.992 Q215.533 340.885 215.533 337.274 Q215.533 333.663 213.195 331.556 Q210.857 329.45 206.852 329.45 Q204.977 329.45 203.102 329.867 Q201.25 330.283 199.306 331.163 L199.306 313.802 Z" fill="#000000" fill-rule="nonzero" fill-opacity="1" /><path clip-path="url(#clip560)" d="M239.422 316.881 Q235.81 316.881 233.982 320.445 Q232.176 323.987 232.176 331.117 Q232.176 338.223 233.982 341.788 Q235.81 345.33 239.422 345.33 Q243.056 345.33 244.861 341.788 Q246.69 338.223 246.69 331.117 Q246.69 323.987 244.861 320.445 Q243.056 316.881 239.422 316.881 M239.422 313.177 Q245.232 313.177 248.287 317.783 Q251.366 322.367 251.366 331.117 Q251.366 339.843 248.287 344.45 Q245.232 349.033 239.422 349.033 Q233.611 349.033 230.533 344.45 Q227.477 339.843 227.477 331.117 Q227.477 322.367 230.533 317.783 Q233.611 313.177 239.422 313.177 Z" fill="#000000" fill-rule="nonzero" fill-opacity="1" /><path clip-path="url(#clip560)" d="M115.256 294.543 L144.931 294.543 L144.931 298.478 L115.256 298.478 L115.256 294.543 Z" fill="#000000" fill-rule="nonzero" fill-opacity="1" /><path clip-path="url(#clip560)" d="M165.024 279.89 Q161.413 279.89 159.584 283.455 Q157.778 286.997 157.778 294.126 Q157.778 301.233 159.584 304.797 Q161.413 308.339 165.024 308.339 Q168.658 308.339 170.464 304.797 Q172.292 301.233 172.292 294.126 Q172.292 286.997 170.464 283.455 Q168.658 279.89 165.024 279.89 M165.024 276.186 Q170.834 276.186 173.889 280.793 Q176.968 285.376 176.968 294.126 Q176.968 302.853 173.889 307.459 Q170.834 312.043 165.024 312.043 Q159.214 312.043 156.135 307.459 Q153.079 302.853 153.079 294.126 Q153.079 285.376 156.135 280.793 Q159.214 276.186 165.024 276.186 Z" fill="#000000" fill-rule="nonzero" fill-opacity="1" /><path clip-path="url(#clip560)" d="M185.186 305.492 L190.07 305.492 L190.07 311.371 L185.186 311.371 L185.186 305.492 Z" fill="#000000" fill-rule="nonzero" fill-opacity="1" /><path clip-path="url(#clip560)" d="M204.283 307.436 L220.602 307.436 L220.602 311.371 L198.658 311.371 L198.658 307.436 Q201.32 304.682 205.903 300.052 Q210.51 295.399 211.69 294.057 Q213.936 291.534 214.815 289.797 Q215.718 288.038 215.718 286.348 Q215.718 283.594 213.774 281.858 Q211.852 280.122 208.75 280.122 Q206.551 280.122 204.098 280.885 Q201.667 281.649 198.889 283.2 L198.889 278.478 Q201.713 277.344 204.167 276.765 Q206.621 276.186 208.658 276.186 Q214.028 276.186 217.223 278.872 Q220.417 281.557 220.417 286.047 Q220.417 288.177 219.607 290.098 Q218.82 291.997 216.713 294.589 Q216.135 295.26 213.033 298.478 Q209.931 301.672 204.283 307.436 Z" fill="#000000" fill-rule="nonzero" fill-opacity="1" /><path clip-path="url(#clip560)" d="M230.463 276.811 L248.82 276.811 L248.82 280.747 L234.746 280.747 L234.746 289.219 Q235.764 288.872 236.783 288.709 Q237.801 288.524 238.82 288.524 Q244.607 288.524 247.986 291.696 Q251.366 294.867 251.366 300.284 Q251.366 305.862 247.894 308.964 Q244.421 312.043 238.102 312.043 Q235.926 312.043 233.658 311.672 Q231.412 311.302 229.005 310.561 L229.005 305.862 Q231.088 306.996 233.31 307.552 Q235.533 308.108 238.009 308.108 Q242.014 308.108 244.352 306.001 Q246.69 303.895 246.69 300.284 Q246.69 296.672 244.352 294.566 Q242.014 292.459 238.009 292.459 Q236.135 292.459 234.26 292.876 Q232.408 293.293 230.463 294.172 L230.463 276.811 Z" fill="#000000" fill-rule="nonzero" fill-opacity="1" /><path clip-path="url(#clip560)" d="M164.028 242.9 Q160.417 242.9 158.589 246.464 Q156.783 250.006 156.783 257.136 Q156.783 264.242 158.589 267.807 Q160.417 271.348 164.028 271.348 Q167.663 271.348 169.468 267.807 Q171.297 264.242 171.297 257.136 Q171.297 250.006 169.468 246.464 Q167.663 242.9 164.028 242.9 M164.028 239.196 Q169.839 239.196 172.894 243.802 Q175.973 248.386 175.973 257.136 Q175.973 265.862 172.894 270.469 Q169.839 275.052 164.028 275.052 Q158.218 275.052 155.14 270.469 Q152.084 265.862 152.084 257.136 Q152.084 248.386 155.14 243.802 Q158.218 239.196 164.028 239.196 Z" fill="#000000" fill-rule="nonzero" fill-opacity="1" /><path clip-path="url(#clip560)" d="M184.19 268.501 L189.075 268.501 L189.075 274.381 L184.19 274.381 L184.19 268.501 Z" fill="#000000" fill-rule="nonzero" fill-opacity="1" /><path clip-path="url(#clip560)" d="M209.26 242.9 Q205.649 242.9 203.82 246.464 Q202.014 250.006 202.014 257.136 Q202.014 264.242 203.82 267.807 Q205.649 271.348 209.26 271.348 Q212.894 271.348 214.699 267.807 Q216.528 264.242 216.528 257.136 Q216.528 250.006 214.699 246.464 Q212.894 242.9 209.26 242.9 M209.26 239.196 Q215.07 239.196 218.125 243.802 Q221.204 248.386 221.204 257.136 Q221.204 265.862 218.125 270.469 Q215.07 275.052 209.26 275.052 Q203.449 275.052 200.371 270.469 Q197.315 265.862 197.315 257.136 Q197.315 248.386 200.371 243.802 Q203.449 239.196 209.26 239.196 Z" fill="#000000" fill-rule="nonzero" fill-opacity="1" /><path clip-path="url(#clip560)" d="M239.422 242.9 Q235.81 242.9 233.982 246.464 Q232.176 250.006 232.176 257.136 Q232.176 264.242 233.982 267.807 Q235.81 271.348 239.422 271.348 Q243.056 271.348 244.861 267.807 Q246.69 264.242 246.69 257.136 Q246.69 250.006 244.861 246.464 Q243.056 242.9 239.422 242.9 M239.422 239.196 Q245.232 239.196 248.287 243.802 Q251.366 248.386 251.366 257.136 Q251.366 265.862 248.287 270.469 Q245.232 275.052 239.422 275.052 Q233.611 275.052 230.533 270.469 Q227.477 265.862 227.477 257.136 Q227.477 248.386 230.533 243.802 Q233.611 239.196 239.422 239.196 Z" fill="#000000" fill-rule="nonzero" fill-opacity="1" /><path clip-path="url(#clip560)" d="M165.024 205.909 Q161.413 205.909 159.584 209.474 Q157.778 213.015 157.778 220.145 Q157.778 227.251 159.584 230.816 Q161.413 234.358 165.024 234.358 Q168.658 234.358 170.464 230.816 Q172.292 227.251 172.292 220.145 Q172.292 213.015 170.464 209.474 Q168.658 205.909 165.024 205.909 M165.024 202.205 Q170.834 202.205 173.889 206.812 Q176.968 211.395 176.968 220.145 Q176.968 228.872 173.889 233.478 Q170.834 238.062 165.024 238.062 Q159.214 238.062 156.135 233.478 Q153.079 228.872 153.079 220.145 Q153.079 211.395 156.135 206.812 Q159.214 202.205 165.024 202.205 Z" fill="#000000" fill-rule="nonzero" fill-opacity="1" /><path clip-path="url(#clip560)" d="M185.186 231.511 L190.07 231.511 L190.07 237.39 L185.186 237.39 L185.186 231.511 Z" fill="#000000" fill-rule="nonzero" fill-opacity="1" /><path clip-path="url(#clip560)" d="M204.283 233.455 L220.602 233.455 L220.602 237.39 L198.658 237.39 L198.658 233.455 Q201.32 230.701 205.903 226.071 Q210.51 221.418 211.69 220.076 Q213.936 217.552 214.815 215.816 Q215.718 214.057 215.718 212.367 Q215.718 209.613 213.774 207.877 Q211.852 206.14 208.75 206.14 Q206.551 206.14 204.098 206.904 Q201.667 207.668 198.889 209.219 L198.889 204.497 Q201.713 203.363 204.167 202.784 Q206.621 202.205 208.658 202.205 Q214.028 202.205 217.223 204.89 Q220.417 207.576 220.417 212.066 Q220.417 214.196 219.607 216.117 Q218.82 218.015 216.713 220.608 Q216.135 221.279 213.033 224.497 Q209.931 227.691 204.283 233.455 Z" fill="#000000" fill-rule="nonzero" fill-opacity="1" /><path clip-path="url(#clip560)" d="M230.463 202.83 L248.82 202.83 L248.82 206.765 L234.746 206.765 L234.746 215.238 Q235.764 214.89 236.783 214.728 Q237.801 214.543 238.82 214.543 Q244.607 214.543 247.986 217.714 Q251.366 220.886 251.366 226.302 Q251.366 231.881 247.894 234.983 Q244.421 238.062 238.102 238.062 Q235.926 238.062 233.658 237.691 Q231.412 237.321 229.005 236.58 L229.005 231.881 Q231.088 233.015 233.31 233.571 Q235.533 234.126 238.009 234.126 Q242.014 234.126 244.352 232.02 Q246.69 229.913 246.69 226.302 Q246.69 222.691 244.352 220.585 Q242.014 218.478 238.009 218.478 Q236.135 218.478 234.26 218.895 Q232.408 219.312 230.463 220.191 L230.463 202.83 Z" fill="#000000" fill-rule="nonzero" fill-opacity="1" /><path clip-path="url(#clip560)" d="M164.028 168.918 Q160.417 168.918 158.589 172.483 Q156.783 176.025 156.783 183.154 Q156.783 190.261 158.589 193.826 Q160.417 197.367 164.028 197.367 Q167.663 197.367 169.468 193.826 Q171.297 190.261 171.297 183.154 Q171.297 176.025 169.468 172.483 Q167.663 168.918 164.028 168.918 M164.028 165.215 Q169.839 165.215 172.894 169.821 Q175.973 174.405 175.973 183.154 Q175.973 191.881 172.894 196.488 Q169.839 201.071 164.028 201.071 Q158.218 201.071 155.14 196.488 Q152.084 191.881 152.084 183.154 Q152.084 174.405 155.14 169.821 Q158.218 165.215 164.028 165.215 Z" fill="#000000" fill-rule="nonzero" fill-opacity="1" /><path clip-path="url(#clip560)" d="M184.19 194.52 L189.075 194.52 L189.075 200.4 L184.19 200.4 L184.19 194.52 Z" fill="#000000" fill-rule="nonzero" fill-opacity="1" /><path clip-path="url(#clip560)" d="M199.306 165.84 L217.662 165.84 L217.662 169.775 L203.588 169.775 L203.588 178.247 Q204.607 177.9 205.625 177.738 Q206.644 177.553 207.662 177.553 Q213.449 177.553 216.829 180.724 Q220.209 183.895 220.209 189.312 Q220.209 194.891 216.736 197.992 Q213.264 201.071 206.945 201.071 Q204.769 201.071 202.5 200.701 Q200.255 200.33 197.848 199.59 L197.848 194.891 Q199.931 196.025 202.153 196.58 Q204.375 197.136 206.852 197.136 Q210.857 197.136 213.195 195.029 Q215.533 192.923 215.533 189.312 Q215.533 185.701 213.195 183.594 Q210.857 181.488 206.852 181.488 Q204.977 181.488 203.102 181.904 Q201.25 182.321 199.306 183.201 L199.306 165.84 Z" fill="#000000" fill-rule="nonzero" fill-opacity="1" /><path clip-path="url(#clip560)" d="M239.422 168.918 Q235.81 168.918 233.982 172.483 Q232.176 176.025 232.176 183.154 Q232.176 190.261 233.982 193.826 Q235.81 197.367 239.422 197.367 Q243.056 197.367 244.861 193.826 Q246.69 190.261 246.69 183.154 Q246.69 176.025 244.861 172.483 Q243.056 168.918 239.422 168.918 M239.422 165.215 Q245.232 165.215 248.287 169.821 Q251.366 174.405 251.366 183.154 Q251.366 191.881 248.287 196.488 Q245.232 201.071 239.422 201.071 Q233.611 201.071 230.533 196.488 Q227.477 191.881 227.477 183.154 Q227.477 174.405 230.533 169.821 Q233.611 165.215 239.422 165.215 Z" fill="#000000" fill-rule="nonzero" fill-opacity="1" /><path clip-path="url(#clip560)" d="M165.024 131.928 Q161.413 131.928 159.584 135.493 Q157.778 139.034 157.778 146.164 Q157.778 153.27 159.584 156.835 Q161.413 160.377 165.024 160.377 Q168.658 160.377 170.464 156.835 Q172.292 153.27 172.292 146.164 Q172.292 139.034 170.464 135.493 Q168.658 131.928 165.024 131.928 M165.024 128.224 Q170.834 128.224 173.889 132.831 Q176.968 137.414 176.968 146.164 Q176.968 154.891 173.889 159.497 Q170.834 164.08 165.024 164.08 Q159.214 164.08 156.135 159.497 Q153.079 154.891 153.079 146.164 Q153.079 137.414 156.135 132.831 Q159.214 128.224 165.024 128.224 Z" fill="#000000" fill-rule="nonzero" fill-opacity="1" /><path clip-path="url(#clip560)" d="M185.186 157.53 L190.07 157.53 L190.07 163.409 L185.186 163.409 L185.186 157.53 Z" fill="#000000" fill-rule="nonzero" fill-opacity="1" /><path clip-path="url(#clip560)" d="M199.075 128.849 L221.297 128.849 L221.297 130.84 L208.75 163.409 L203.866 163.409 L215.672 132.784 L199.075 132.784 L199.075 128.849 Z" fill="#000000" fill-rule="nonzero" fill-opacity="1" /><path clip-path="url(#clip560)" d="M230.463 128.849 L248.82 128.849 L248.82 132.784 L234.746 132.784 L234.746 141.257 Q235.764 140.909 236.783 140.747 Q237.801 140.562 238.82 140.562 Q244.607 140.562 247.986 143.733 Q251.366 146.905 251.366 152.321 Q251.366 157.9 247.894 161.002 Q244.421 164.08 238.102 164.08 Q235.926 164.08 233.658 163.71 Q231.412 163.34 229.005 162.599 L229.005 157.9 Q231.088 159.034 233.31 159.59 Q235.533 160.145 238.009 160.145 Q242.014 160.145 244.352 158.039 Q246.69 155.932 246.69 152.321 Q246.69 148.71 244.352 146.604 Q242.014 144.497 238.009 144.497 Q236.135 144.497 234.26 144.914 Q232.408 145.331 230.463 146.21 L230.463 128.849 Z" fill="#000000" fill-rule="nonzero" fill-opacity="1" /><path clip-path="url(#clip560)" d="M67.3143 257.005 Q73.68 259.488 75.6216 261.843 Q77.5631 264.198 77.5631 268.145 L77.5631 272.824 L72.6615 272.824 L72.6615 269.386 Q72.6615 266.967 71.5157 265.631 Q70.3699 264.294 66.1048 262.67 L63.4312 261.62 L28.3562 276.038 L28.3562 269.832 L56.238 258.692 L28.3562 247.552 L28.3562 241.345 L67.3143 257.005 Z" fill="#000000" fill-rule="nonzero" fill-opacity="1" /><path clip-path="url(#clip560)" d="M58.5933 231.319 L58.5933 220.816 L22.3406 220.816 L24.6323 232.242 L18.7758 232.242 L16.4842 220.88 L16.4842 214.45 L58.5933 214.45 L58.5933 203.947 L64.0042 203.947 L64.0042 231.319 L58.5933 231.319 Z" fill="#000000" fill-rule="nonzero" fill-opacity="1" /><path clip-path="url(#clip560)" d="M928.683 18.8205 L928.683 65.8515 L938.567 65.8515 Q951.084 65.8515 956.877 60.1802 Q962.71 54.509 962.71 42.2752 Q962.71 30.1225 956.877 24.4918 Q951.084 18.8205 938.567 18.8205 L928.683 18.8205 M920.5 12.096 L937.311 12.096 Q954.892 12.096 963.115 19.4281 Q971.339 26.7198 971.339 42.2752 Q971.339 57.9117 963.075 65.2439 Q954.811 72.576 937.311 72.576 L920.5 72.576 L920.5 12.096 Z" fill="#000000" fill-rule="nonzero" fill-opacity="1" /><path clip-path="url(#clip560)" d="M1004.68 49.7694 Q995.644 49.7694 992.16 51.8354 Q988.677 53.9013 988.677 58.8839 Q988.677 62.8538 991.269 65.2034 Q993.902 67.5124 998.399 67.5124 Q1004.6 67.5124 1008.32 63.1374 Q1012.09 58.7219 1012.09 51.4303 L1012.09 49.7694 L1004.68 49.7694 M1019.54 46.6907 L1019.54 72.576 L1012.09 72.576 L1012.09 65.6895 Q1009.54 69.8214 1005.73 71.8063 Q1001.92 73.7508 996.414 73.7508 Q989.446 73.7508 985.314 69.8619 Q981.223 65.9325 981.223 59.3701 Q981.223 51.7138 986.327 47.825 Q991.472 43.9361 1001.64 43.9361 L1012.09 43.9361 L1012.09 43.2069 Q1012.09 38.0623 1008.69 35.2672 Q1005.33 32.4315 999.209 32.4315 Q995.32 32.4315 991.634 33.3632 Q987.948 34.295 984.545 36.1584 L984.545 29.2718 Q988.636 27.692 992.485 26.9223 Q996.333 26.1121 999.979 26.1121 Q1009.82 26.1121 1014.68 31.2163 Q1019.54 36.3204 1019.54 46.6907 Z" fill="#000000" fill-rule="nonzero" fill-opacity="1" /><path clip-path="url(#clip560)" d="M1070.22 35.9153 Q1073.02 30.8922 1076.91 28.5022 Q1080.79 26.1121 1086.06 26.1121 Q1093.15 26.1121 1097 31.0947 Q1100.85 36.0368 1100.85 45.1919 L1100.85 72.576 L1093.35 72.576 L1093.35 45.4349 Q1093.35 38.913 1091.04 35.7533 Q1088.73 32.5936 1083.99 32.5936 Q1078.2 32.5936 1074.84 36.4419 Q1071.48 40.2903 1071.48 46.9338 L1071.48 72.576 L1063.98 72.576 L1063.98 45.4349 Q1063.98 38.8725 1061.67 35.7533 Q1059.36 32.5936 1054.54 32.5936 Q1048.83 32.5936 1045.47 36.4824 Q1042.11 40.3308 1042.11 46.9338 L1042.11 72.576 L1034.61 72.576 L1034.61 27.2059 L1042.11 27.2059 L1042.11 34.2544 Q1044.66 30.082 1048.22 28.0971 Q1051.79 26.1121 1056.69 26.1121 Q1061.63 26.1121 1065.08 28.6237 Q1068.56 31.1352 1070.22 35.9153 Z" fill="#000000" fill-rule="nonzero" fill-opacity="1" /><path clip-path="url(#clip560)" d="M1122.92 65.7705 L1122.92 89.8329 L1115.43 89.8329 L1115.43 27.2059 L1122.92 27.2059 L1122.92 34.0924 Q1125.27 30.0415 1128.84 28.0971 Q1132.44 26.1121 1137.43 26.1121 Q1145.69 26.1121 1150.83 32.6746 Q1156.02 39.2371 1156.02 49.9314 Q1156.02 60.6258 1150.83 67.1883 Q1145.69 73.7508 1137.43 73.7508 Q1132.44 73.7508 1128.84 71.8063 Q1125.27 69.8214 1122.92 65.7705 M1148.28 49.9314 Q1148.28 41.7081 1144.88 37.0496 Q1141.52 32.3505 1135.6 32.3505 Q1129.69 32.3505 1126.29 37.0496 Q1122.92 41.7081 1122.92 49.9314 Q1122.92 58.1548 1126.29 62.8538 Q1129.69 67.5124 1135.6 67.5124 Q1141.52 67.5124 1144.88 62.8538 Q1148.28 58.1548 1148.28 49.9314 Z" fill="#000000" fill-rule="nonzero" fill-opacity="1" /><path clip-path="url(#clip560)" d="M1207.18 48.0275 L1207.18 51.6733 L1172.91 51.6733 Q1173.4 59.3701 1177.53 63.421 Q1181.7 67.4314 1189.12 67.4314 Q1193.41 67.4314 1197.42 66.3781 Q1201.47 65.3249 1205.44 63.2184 L1205.44 70.267 Q1201.43 71.9684 1197.22 72.8596 Q1193 73.7508 1188.67 73.7508 Q1177.81 73.7508 1171.45 67.4314 Q1165.13 61.1119 1165.13 50.3365 Q1165.13 39.1965 1171.13 32.6746 Q1177.17 26.1121 1187.37 26.1121 Q1196.53 26.1121 1201.84 32.0264 Q1207.18 37.9003 1207.18 48.0275 M1199.73 45.84 Q1199.65 39.7232 1196.29 36.0774 Q1192.96 32.4315 1187.45 32.4315 Q1181.22 32.4315 1177.45 35.9558 Q1173.72 39.4801 1173.15 45.8805 L1199.73 45.84 Z" fill="#000000" fill-rule="nonzero" fill-opacity="1" /><path clip-path="url(#clip560)" d="M1249.27 34.0924 L1249.27 9.54393 L1256.73 9.54393 L1256.73 72.576 L1249.27 72.576 L1249.27 65.7705 Q1246.92 69.8214 1243.32 71.8063 Q1239.75 73.7508 1234.73 73.7508 Q1226.51 73.7508 1221.32 67.1883 Q1216.18 60.6258 1216.18 49.9314 Q1216.18 39.2371 1221.32 32.6746 Q1226.51 26.1121 1234.73 26.1121 Q1239.75 26.1121 1243.32 28.0971 Q1246.92 30.0415 1249.27 34.0924 M1223.87 49.9314 Q1223.87 58.1548 1227.23 62.8538 Q1230.64 67.5124 1236.55 67.5124 Q1242.47 67.5124 1245.87 62.8538 Q1249.27 58.1548 1249.27 49.9314 Q1249.27 41.7081 1245.87 37.0496 Q1242.47 32.3505 1236.55 32.3505 Q1230.64 32.3505 1227.23 37.0496 Q1223.87 41.7081 1223.87 49.9314 Z" fill="#000000" fill-rule="nonzero" fill-opacity="1" /><path clip-path="url(#clip560)" d="M1335.03 14.0809 L1335.03 22.0612 Q1330.37 19.8332 1326.24 18.7395 Q1322.11 17.6457 1318.26 17.6457 Q1311.57 17.6457 1307.93 20.2383 Q1304.32 22.8309 1304.32 27.611 Q1304.32 31.6214 1306.71 33.6873 Q1309.14 35.7128 1315.87 36.9686 L1320.81 37.9813 Q1329.97 39.7232 1334.3 44.1387 Q1338.67 48.5136 1338.67 55.8863 Q1338.67 64.6767 1332.76 69.2137 Q1326.89 73.7508 1315.5 73.7508 Q1311.21 73.7508 1306.35 72.7785 Q1301.53 71.8063 1296.34 69.9024 L1296.34 61.4765 Q1301.33 64.2716 1306.11 65.6895 Q1310.89 67.1073 1315.5 67.1073 Q1322.51 67.1073 1326.32 64.3527 Q1330.13 61.598 1330.13 56.4939 Q1330.13 52.0379 1327.37 49.5264 Q1324.66 47.0148 1318.42 45.759 L1313.44 44.7868 Q1304.28 42.9639 1300.19 39.075 Q1296.1 35.1862 1296.1 28.2591 Q1296.1 20.2383 1301.73 15.6203 Q1307.4 11.0023 1317.33 11.0023 Q1321.58 11.0023 1326 11.7719 Q1330.41 12.5416 1335.03 14.0809 Z" fill="#000000" fill-rule="nonzero" fill-opacity="1" /><path clip-path="url(#clip560)" d="M1351.11 27.2059 L1358.56 27.2059 L1358.56 72.576 L1351.11 72.576 L1351.11 27.2059 M1351.11 9.54393 L1358.56 9.54393 L1358.56 18.9825 L1351.11 18.9825 L1351.11 9.54393 Z" fill="#000000" fill-rule="nonzero" fill-opacity="1" /><path clip-path="url(#clip560)" d="M1411.87 45.1919 L1411.87 72.576 L1404.42 72.576 L1404.42 45.4349 Q1404.42 38.994 1401.91 35.7938 Q1399.4 32.5936 1394.37 32.5936 Q1388.34 32.5936 1384.86 36.4419 Q1381.37 40.2903 1381.37 46.9338 L1381.37 72.576 L1373.88 72.576 L1373.88 27.2059 L1381.37 27.2059 L1381.37 34.2544 Q1384.04 30.163 1387.65 28.1376 Q1391.3 26.1121 1396.04 26.1121 Q1403.85 26.1121 1407.86 30.9732 Q1411.87 35.7938 1411.87 45.1919 Z" fill="#000000" fill-rule="nonzero" fill-opacity="1" /><path clip-path="url(#clip560)" d="M1465.55 48.0275 L1465.55 51.6733 L1431.28 51.6733 Q1431.76 59.3701 1435.9 63.421 Q1440.07 67.4314 1447.48 67.4314 Q1451.78 67.4314 1455.79 66.3781 Q1459.84 65.3249 1463.81 63.2184 L1463.81 70.267 Q1459.8 71.9684 1455.58 72.8596 Q1451.37 73.7508 1447.04 73.7508 Q1436.18 73.7508 1429.82 67.4314 Q1423.5 61.1119 1423.5 50.3365 Q1423.5 39.1965 1429.5 32.6746 Q1435.53 26.1121 1445.74 26.1121 Q1454.9 26.1121 1460.2 32.0264 Q1465.55 37.9003 1465.55 48.0275 M1458.1 45.84 Q1458.01 39.7232 1454.65 36.0774 Q1451.33 32.4315 1445.82 32.4315 Q1439.58 32.4315 1435.82 35.9558 Q1432.09 39.4801 1431.52 45.8805 L1458.1 45.84 Z" fill="#000000" fill-rule="nonzero" fill-opacity="1" /><path clip-path="url(#clip560)" d="M1499.09 12.096 L1507.35 12.096 L1520.07 63.2184 L1532.75 12.096 L1541.95 12.096 L1554.67 63.2184 L1567.35 12.096 L1575.65 12.096 L1560.46 72.576 L1550.17 72.576 L1537.41 20.0763 L1524.53 72.576 L1514.24 72.576 L1499.09 12.096 Z" fill="#000000" fill-rule="nonzero" fill-opacity="1" /><path clip-path="url(#clip560)" d="M1601.5 49.7694 Q1592.46 49.7694 1588.98 51.8354 Q1585.5 53.9013 1585.5 58.8839 Q1585.5 62.8538 1588.09 65.2034 Q1590.72 67.5124 1595.22 67.5124 Q1601.42 67.5124 1605.14 63.1374 Q1608.91 58.7219 1608.91 51.4303 L1608.91 49.7694 L1601.5 49.7694 M1616.36 46.6907 L1616.36 72.576 L1608.91 72.576 L1608.91 65.6895 Q1606.36 69.8214 1602.55 71.8063 Q1598.74 73.7508 1593.23 73.7508 Q1586.27 73.7508 1582.13 69.8619 Q1578.04 65.9325 1578.04 59.3701 Q1578.04 51.7138 1583.15 47.825 Q1588.29 43.9361 1598.46 43.9361 L1608.91 43.9361 L1608.91 43.2069 Q1608.91 38.0623 1605.51 35.2672 Q1602.15 32.4315 1596.03 32.4315 Q1592.14 32.4315 1588.45 33.3632 Q1584.77 34.295 1581.36 36.1584 L1581.36 29.2718 Q1585.46 27.692 1589.3 26.9223 Q1593.15 26.1121 1596.8 26.1121 Q1606.64 26.1121 1611.5 31.2163 Q1616.36 36.3204 1616.36 46.6907 Z" fill="#000000" fill-rule="nonzero" fill-opacity="1" /><path clip-path="url(#clip560)" d="M1626.37 27.2059 L1634.27 27.2059 L1648.45 65.2844 L1662.63 27.2059 L1670.52 27.2059 L1653.51 72.576 L1643.38 72.576 L1626.37 27.2059 Z" fill="#000000" fill-rule="nonzero" fill-opacity="1" /><path clip-path="url(#clip560)" d="M1719.62 48.0275 L1719.62 51.6733 L1685.35 51.6733 Q1685.84 59.3701 1689.97 63.421 Q1694.14 67.4314 1701.55 67.4314 Q1705.85 67.4314 1709.86 66.3781 Q1713.91 65.3249 1717.88 63.2184 L1717.88 70.267 Q1713.87 71.9684 1709.66 72.8596 Q1705.44 73.7508 1701.11 73.7508 Q1690.25 73.7508 1683.89 67.4314 Q1677.57 61.1119 1677.57 50.3365 Q1677.57 39.1965 1683.57 32.6746 Q1689.6 26.1121 1699.81 26.1121 Q1708.97 26.1121 1714.27 32.0264 Q1719.62 37.9003 1719.62 48.0275 M1712.17 45.84 Q1712.09 39.7232 1708.72 36.0774 Q1705.4 32.4315 1699.89 32.4315 Q1693.66 32.4315 1689.89 35.9558 Q1686.16 39.4801 1685.59 45.8805 L1712.17 45.84 Z" fill="#000000" fill-rule="nonzero" fill-opacity="1" /><polyline clip-path="url(#clip562)" style="stroke:#009af9; stroke-linecap:round; stroke-linejoin:round; stroke-width:4; stroke-opacity:1; fill:none" points="345.82,242.476 365.502,228.287 385.184,214.667 404.865,201.741 424.547,189.624 444.228,178.42 463.91,168.225 483.592,159.12 503.273,151.174 522.955,144.443 542.637,138.972 562.318,134.789 582,131.911 601.681,130.34 621.363,130.068 641.045,131.07 660.726,133.311 680.408,136.745 700.09,141.313 719.771,146.947 739.453,153.571 759.135,161.098 778.816,169.435 798.498,178.483 818.179,188.137 837.861,198.289 857.543,208.828 877.224,219.64 896.906,230.612 916.588,241.632 936.269,252.588 955.951,263.373 975.632,273.881 995.314,284.013 1015,293.676 1034.68,302.782 1054.36,311.251 1074.04,319.012 1093.72,326 1113.4,332.162 1133.09,337.452 1152.77,341.834 1172.45,345.283 1192.13,347.782 1211.81,349.326 1231.49,349.918 1251.18,349.57 1270.86,348.306 1290.54,346.156 1310.22,343.158 1329.9,339.36 1349.58,334.815 1369.26,329.584 1388.95,323.732 1408.63,317.331 1428.31,310.454 1447.99,303.18 1467.67,295.59 1487.35,287.766 1507.04,279.79 1526.72,271.746 1546.4,263.714 1566.08,255.776 1585.76,248.008 1605.44,240.484 1625.13,233.276 1644.81,226.448 1664.49,220.062 1684.17,214.172 1703.85,208.828 1723.53,204.072 1743.22,199.94 1762.9,196.461 1782.58,193.657 1802.26,191.542 1821.94,190.124 1841.62,189.403 1861.31,189.373 1880.99,190.02 1900.67,191.325 1920.35,193.261 1940.03,195.796 1959.71,198.894 1979.4,202.512 1999.08,206.604 2018.76,211.119 2038.44,216.004 2058.12,221.203 2077.8,226.658 2097.49,232.309 2117.17,238.096 2136.85,243.958 2156.53,249.835 2176.21,255.669 2195.89,261.401 2215.57,266.977 2235.26,272.344 2254.94,277.452 2274.62,282.256 2294.3,286.713 "/>
<path clip-path="url(#clip560)" d="M287.366 889.847 L2352.76 889.847 L2352.76 656.805 L287.366 656.805  Z" fill="#ffffff" fill-rule="evenodd" fill-opacity="1"/>
<defs>
  <clipPath id="clip563">
    <rect x="287" y="656" width="2066" height="234"/>
  </clipPath>
</defs>
<polyline clip-path="url(#clip563)" style="stroke:#000000; stroke-linecap:round; stroke-linejoin:round; stroke-width:2; stroke-opacity:0.1; fill:none" points="326.139,889.847 326.139,656.805 "/>
<polyline clip-path="url(#clip563)" style="stroke:#000000; stroke-linecap:round; stroke-linejoin:round; stroke-width:2; stroke-opacity:0.1; fill:none" points="818.179,889.847 818.179,656.805 "/>
<polyline clip-path="url(#clip563)" style="stroke:#000000; stroke-linecap:round; stroke-linejoin:round; stroke-width:2; stroke-opacity:0.1; fill:none" points="1310.22,889.847 1310.22,656.805 "/>
<polyline clip-path="url(#clip563)" style="stroke:#000000; stroke-linecap:round; stroke-linejoin:round; stroke-width:2; stroke-opacity:0.1; fill:none" points="1802.26,889.847 1802.26,656.805 "/>
<polyline clip-path="url(#clip563)" style="stroke:#000000; stroke-linecap:round; stroke-linejoin:round; stroke-width:2; stroke-opacity:0.1; fill:none" points="2294.3,889.847 2294.3,656.805 "/>
<polyline clip-path="url(#clip563)" style="stroke:#000000; stroke-linecap:round; stroke-linejoin:round; stroke-width:2; stroke-opacity:0.1; fill:none" points="287.366,853.391 2352.76,853.391 "/>
<polyline clip-path="url(#clip563)" style="stroke:#000000; stroke-linecap:round; stroke-linejoin:round; stroke-width:2; stroke-opacity:0.1; fill:none" points="287.366,789.426 2352.76,789.426 "/>
<polyline clip-path="url(#clip563)" style="stroke:#000000; stroke-linecap:round; stroke-linejoin:round; stroke-width:2; stroke-opacity:0.1; fill:none" points="287.366,725.461 2352.76,725.461 "/>
<polyline clip-path="url(#clip563)" style="stroke:#000000; stroke-linecap:round; stroke-linejoin:round; stroke-width:2; stroke-opacity:0.1; fill:none" points="287.366,661.495 2352.76,661.495 "/>
<polyline clip-path="url(#clip560)" style="stroke:#000000; stroke-linecap:round; stroke-linejoin:round; stroke-width:4; stroke-opacity:1; fill:none" points="287.366,889.847 2352.76,889.847 "/>
<polyline clip-path="url(#clip560)" style="stroke:#000000; stroke-linecap:round; stroke-linejoin:round; stroke-width:4; stroke-opacity:1; fill:none" points="326.139,889.847 326.139,870.949 "/>
<polyline clip-path="url(#clip560)" style="stroke:#000000; stroke-linecap:round; stroke-linejoin:round; stroke-width:4; stroke-opacity:1; fill:none" points="818.179,889.847 818.179,870.949 "/>
<polyline clip-path="url(#clip560)" style="stroke:#000000; stroke-linecap:round; stroke-linejoin:round; stroke-width:4; stroke-opacity:1; fill:none" points="1310.22,889.847 1310.22,870.949 "/>
<polyline clip-path="url(#clip560)" style="stroke:#000000; stroke-linecap:round; stroke-linejoin:round; stroke-width:4; stroke-opacity:1; fill:none" points="1802.26,889.847 1802.26,870.949 "/>
<polyline clip-path="url(#clip560)" style="stroke:#000000; stroke-linecap:round; stroke-linejoin:round; stroke-width:4; stroke-opacity:1; fill:none" points="2294.3,889.847 2294.3,870.949 "/>
<path clip-path="url(#clip560)" d="M326.139 920.765 Q322.528 920.765 320.699 924.33 Q318.893 927.872 318.893 935.001 Q318.893 942.108 320.699 945.672 Q322.528 949.214 326.139 949.214 Q329.773 949.214 331.578 945.672 Q333.407 942.108 333.407 935.001 Q333.407 927.872 331.578 924.33 Q329.773 920.765 326.139 920.765 M326.139 917.062 Q331.949 917.062 335.004 921.668 Q338.083 926.251 338.083 935.001 Q338.083 943.728 335.004 948.334 Q331.949 952.918 326.139 952.918 Q320.329 952.918 317.25 948.334 Q314.194 943.728 314.194 935.001 Q314.194 926.251 317.25 921.668 Q320.329 917.062 326.139 917.062 Z" fill="#000000" fill-rule="nonzero" fill-opacity="1" /><path clip-path="url(#clip560)" d="M797.45 948.311 L813.77 948.311 L813.77 952.247 L791.825 952.247 L791.825 948.311 Q794.487 945.557 799.071 940.927 Q803.677 936.274 804.858 934.932 Q807.103 932.409 807.983 930.673 Q808.885 928.913 808.885 927.223 Q808.885 924.469 806.941 922.733 Q805.02 920.997 801.918 920.997 Q799.719 920.997 797.265 921.761 Q794.835 922.524 792.057 924.075 L792.057 919.353 Q794.881 918.219 797.335 917.64 Q799.788 917.062 801.825 917.062 Q807.196 917.062 810.39 919.747 Q813.585 922.432 813.585 926.923 Q813.585 929.052 812.774 930.973 Q811.987 932.872 809.881 935.464 Q809.302 936.135 806.2 939.353 Q803.098 942.547 797.45 948.311 Z" fill="#000000" fill-rule="nonzero" fill-opacity="1" /><path clip-path="url(#clip560)" d="M823.631 917.687 L841.987 917.687 L841.987 921.622 L827.913 921.622 L827.913 930.094 Q828.932 929.747 829.95 929.585 Q830.969 929.399 831.987 929.399 Q837.774 929.399 841.154 932.571 Q844.533 935.742 844.533 941.159 Q844.533 946.737 841.061 949.839 Q837.589 952.918 831.27 952.918 Q829.094 952.918 826.825 952.547 Q824.58 952.177 822.172 951.436 L822.172 946.737 Q824.256 947.872 826.478 948.427 Q828.7 948.983 831.177 948.983 Q835.182 948.983 837.52 946.876 Q839.858 944.77 839.858 941.159 Q839.858 937.548 837.52 935.441 Q835.182 933.335 831.177 933.335 Q829.302 933.335 827.427 933.751 Q825.575 934.168 823.631 935.048 L823.631 917.687 Z" fill="#000000" fill-rule="nonzero" fill-opacity="1" /><path clip-path="url(#clip560)" d="M1284.92 917.687 L1303.28 917.687 L1303.28 921.622 L1289.2 921.622 L1289.2 930.094 Q1290.22 929.747 1291.24 929.585 Q1292.26 929.399 1293.28 929.399 Q1299.06 929.399 1302.44 932.571 Q1305.82 935.742 1305.82 941.159 Q1305.82 946.737 1302.35 949.839 Q1298.88 952.918 1292.56 952.918 Q1290.38 952.918 1288.11 952.547 Q1285.87 952.177 1283.46 951.436 L1283.46 946.737 Q1285.54 947.872 1287.77 948.427 Q1289.99 948.983 1292.47 948.983 Q1296.47 948.983 1298.81 946.876 Q1301.15 944.77 1301.15 941.159 Q1301.15 937.548 1298.81 935.441 Q1296.47 933.335 1292.47 933.335 Q1290.59 933.335 1288.72 933.751 Q1286.86 934.168 1284.92 935.048 L1284.92 917.687 Z" fill="#000000" fill-rule="nonzero" fill-opacity="1" /><path clip-path="url(#clip560)" d="M1325.03 920.765 Q1321.42 920.765 1319.6 924.33 Q1317.79 927.872 1317.79 935.001 Q1317.79 942.108 1319.6 945.672 Q1321.42 949.214 1325.03 949.214 Q1328.67 949.214 1330.47 945.672 Q1332.3 942.108 1332.3 935.001 Q1332.3 927.872 1330.47 924.33 Q1328.67 920.765 1325.03 920.765 M1325.03 917.062 Q1330.84 917.062 1333.9 921.668 Q1336.98 926.251 1336.98 935.001 Q1336.98 943.728 1333.9 948.334 Q1330.84 952.918 1325.03 952.918 Q1319.22 952.918 1316.15 948.334 Q1313.09 943.728 1313.09 935.001 Q1313.09 926.251 1316.15 921.668 Q1319.22 917.062 1325.03 917.062 Z" fill="#000000" fill-rule="nonzero" fill-opacity="1" /><path clip-path="url(#clip560)" d="M1776.12 917.687 L1798.34 917.687 L1798.34 919.677 L1785.79 952.247 L1780.91 952.247 L1792.71 921.622 L1776.12 921.622 L1776.12 917.687 Z" fill="#000000" fill-rule="nonzero" fill-opacity="1" /><path clip-path="url(#clip560)" d="M1807.5 917.687 L1825.86 917.687 L1825.86 921.622 L1811.79 921.622 L1811.79 930.094 Q1812.8 929.747 1813.82 929.585 Q1814.84 929.399 1815.86 929.399 Q1821.65 929.399 1825.03 932.571 Q1828.41 935.742 1828.41 941.159 Q1828.41 946.737 1824.93 949.839 Q1821.46 952.918 1815.14 952.918 Q1812.97 952.918 1810.7 952.547 Q1808.45 952.177 1806.05 951.436 L1806.05 946.737 Q1808.13 947.872 1810.35 948.427 Q1812.57 948.983 1815.05 948.983 Q1819.05 948.983 1821.39 946.876 Q1823.73 944.77 1823.73 941.159 Q1823.73 937.548 1821.39 935.441 Q1819.05 933.335 1815.05 933.335 Q1813.18 933.335 1811.3 933.751 Q1809.45 934.168 1807.5 935.048 L1807.5 917.687 Z" fill="#000000" fill-rule="nonzero" fill-opacity="1" /><path clip-path="url(#clip560)" d="M2253.91 948.311 L2261.55 948.311 L2261.55 921.946 L2253.24 923.612 L2253.24 919.353 L2261.5 917.687 L2266.18 917.687 L2266.18 948.311 L2273.82 948.311 L2273.82 952.247 L2253.91 952.247 L2253.91 948.311 Z" fill="#000000" fill-rule="nonzero" fill-opacity="1" /><path clip-path="url(#clip560)" d="M2293.26 920.765 Q2289.65 920.765 2287.82 924.33 Q2286.01 927.872 2286.01 935.001 Q2286.01 942.108 2287.82 945.672 Q2289.65 949.214 2293.26 949.214 Q2296.89 949.214 2298.7 945.672 Q2300.53 942.108 2300.53 935.001 Q2300.53 927.872 2298.7 924.33 Q2296.89 920.765 2293.26 920.765 M2293.26 917.062 Q2299.07 917.062 2302.13 921.668 Q2305.2 926.251 2305.2 935.001 Q2305.2 943.728 2302.13 948.334 Q2299.07 952.918 2293.26 952.918 Q2287.45 952.918 2284.37 948.334 Q2281.32 943.728 2281.32 935.001 Q2281.32 926.251 2284.37 921.668 Q2287.45 917.062 2293.26 917.062 Z" fill="#000000" fill-rule="nonzero" fill-opacity="1" /><path clip-path="url(#clip560)" d="M2323.42 920.765 Q2319.81 920.765 2317.98 924.33 Q2316.18 927.872 2316.18 935.001 Q2316.18 942.108 2317.98 945.672 Q2319.81 949.214 2323.42 949.214 Q2327.06 949.214 2328.86 945.672 Q2330.69 942.108 2330.69 935.001 Q2330.69 927.872 2328.86 924.33 Q2327.06 920.765 2323.42 920.765 M2323.42 917.062 Q2329.23 917.062 2332.29 921.668 Q2335.37 926.251 2335.37 935.001 Q2335.37 943.728 2332.29 948.334 Q2329.23 952.918 2323.42 952.918 Q2317.61 952.918 2314.53 948.334 Q2311.48 943.728 2311.48 935.001 Q2311.48 926.251 2314.53 921.668 Q2317.61 917.062 2323.42 917.062 Z" fill="#000000" fill-rule="nonzero" fill-opacity="1" /><path clip-path="url(#clip560)" d="M1336.68 999.063 L1323.78 1016.41 L1337.34 1034.71 L1330.44 1034.71 L1320.06 1020.71 L1309.68 1034.71 L1302.78 1034.71 L1316.62 1016.06 L1303.96 999.063 L1310.86 999.063 L1320.32 1011.76 L1329.77 999.063 L1336.68 999.063 Z" fill="#000000" fill-rule="nonzero" fill-opacity="1" /><polyline clip-path="url(#clip560)" style="stroke:#000000; stroke-linecap:round; stroke-linejoin:round; stroke-width:4; stroke-opacity:1; fill:none" points="287.366,889.847 287.366,656.805 "/>
<polyline clip-path="url(#clip560)" style="stroke:#000000; stroke-linecap:round; stroke-linejoin:round; stroke-width:4; stroke-opacity:1; fill:none" points="287.366,853.391 306.264,853.391 "/>
<polyline clip-path="url(#clip560)" style="stroke:#000000; stroke-linecap:round; stroke-linejoin:round; stroke-width:4; stroke-opacity:1; fill:none" points="287.366,789.426 306.264,789.426 "/>
<polyline clip-path="url(#clip560)" style="stroke:#000000; stroke-linecap:round; stroke-linejoin:round; stroke-width:4; stroke-opacity:1; fill:none" points="287.366,725.461 306.264,725.461 "/>
<polyline clip-path="url(#clip560)" style="stroke:#000000; stroke-linecap:round; stroke-linejoin:round; stroke-width:4; stroke-opacity:1; fill:none" points="287.366,661.495 306.264,661.495 "/>
<path clip-path="url(#clip560)" d="M145.417 853.843 L175.093 853.843 L175.093 857.778 L145.417 857.778 L145.417 853.843 Z" fill="#000000" fill-rule="nonzero" fill-opacity="1" /><path clip-path="url(#clip560)" d="M195.186 839.19 Q191.575 839.19 189.746 842.755 Q187.94 846.297 187.94 853.426 Q187.94 860.533 189.746 864.097 Q191.575 867.639 195.186 867.639 Q198.82 867.639 200.625 864.097 Q202.454 860.533 202.454 853.426 Q202.454 846.297 200.625 842.755 Q198.82 839.19 195.186 839.19 M195.186 835.486 Q200.996 835.486 204.051 840.093 Q207.13 844.676 207.13 853.426 Q207.13 862.153 204.051 866.759 Q200.996 871.343 195.186 871.343 Q189.375 871.343 186.297 866.759 Q183.241 862.153 183.241 853.426 Q183.241 844.676 186.297 840.093 Q189.375 835.486 195.186 835.486 Z" fill="#000000" fill-rule="nonzero" fill-opacity="1" /><path clip-path="url(#clip560)" d="M215.348 864.792 L220.232 864.792 L220.232 870.671 L215.348 870.671 L215.348 864.792 Z" fill="#000000" fill-rule="nonzero" fill-opacity="1" /><path clip-path="url(#clip560)" d="M230.463 836.111 L248.82 836.111 L248.82 840.047 L234.746 840.047 L234.746 848.519 Q235.764 848.172 236.783 848.009 Q237.801 847.824 238.82 847.824 Q244.607 847.824 247.986 850.996 Q251.366 854.167 251.366 859.583 Q251.366 865.162 247.894 868.264 Q244.421 871.343 238.102 871.343 Q235.926 871.343 233.658 870.972 Q231.412 870.602 229.005 869.861 L229.005 865.162 Q231.088 866.296 233.31 866.852 Q235.533 867.408 238.009 867.408 Q242.014 867.408 244.352 865.301 Q246.69 863.195 246.69 859.583 Q246.69 855.972 244.352 853.866 Q242.014 851.759 238.009 851.759 Q236.135 851.759 234.26 852.176 Q232.408 852.593 230.463 853.472 L230.463 836.111 Z" fill="#000000" fill-rule="nonzero" fill-opacity="1" /><path clip-path="url(#clip560)" d="M194.19 775.225 Q190.579 775.225 188.75 778.79 Q186.945 782.331 186.945 789.461 Q186.945 796.567 188.75 800.132 Q190.579 803.674 194.19 803.674 Q197.825 803.674 199.63 800.132 Q201.459 796.567 201.459 789.461 Q201.459 782.331 199.63 778.79 Q197.825 775.225 194.19 775.225 M194.19 771.521 Q200 771.521 203.056 776.127 Q206.135 780.711 206.135 789.461 Q206.135 798.188 203.056 802.794 Q200 807.377 194.19 807.377 Q188.38 807.377 185.301 802.794 Q182.246 798.188 182.246 789.461 Q182.246 780.711 185.301 776.127 Q188.38 771.521 194.19 771.521 Z" fill="#000000" fill-rule="nonzero" fill-opacity="1" /><path clip-path="url(#clip560)" d="M214.352 800.826 L219.236 800.826 L219.236 806.706 L214.352 806.706 L214.352 800.826 Z" fill="#000000" fill-rule="nonzero" fill-opacity="1" /><path clip-path="url(#clip560)" d="M239.422 775.225 Q235.81 775.225 233.982 778.79 Q232.176 782.331 232.176 789.461 Q232.176 796.567 233.982 800.132 Q235.81 803.674 239.422 803.674 Q243.056 803.674 244.861 800.132 Q246.69 796.567 246.69 789.461 Q246.69 782.331 244.861 778.79 Q243.056 775.225 239.422 775.225 M239.422 771.521 Q245.232 771.521 248.287 776.127 Q251.366 780.711 251.366 789.461 Q251.366 798.188 248.287 802.794 Q245.232 807.377 239.422 807.377 Q233.611 807.377 230.533 802.794 Q227.477 798.188 227.477 789.461 Q227.477 780.711 230.533 776.127 Q233.611 771.521 239.422 771.521 Z" fill="#000000" fill-rule="nonzero" fill-opacity="1" /><path clip-path="url(#clip560)" d="M195.186 711.259 Q191.575 711.259 189.746 714.824 Q187.94 718.366 187.94 725.495 Q187.94 732.602 189.746 736.167 Q191.575 739.708 195.186 739.708 Q198.82 739.708 200.625 736.167 Q202.454 732.602 202.454 725.495 Q202.454 718.366 200.625 714.824 Q198.82 711.259 195.186 711.259 M195.186 707.556 Q200.996 707.556 204.051 712.162 Q207.13 716.745 207.13 725.495 Q207.13 734.222 204.051 738.829 Q200.996 743.412 195.186 743.412 Q189.375 743.412 186.297 738.829 Q183.241 734.222 183.241 725.495 Q183.241 716.745 186.297 712.162 Q189.375 707.556 195.186 707.556 Z" fill="#000000" fill-rule="nonzero" fill-opacity="1" /><path clip-path="url(#clip560)" d="M215.348 736.861 L220.232 736.861 L220.232 742.741 L215.348 742.741 L215.348 736.861 Z" fill="#000000" fill-rule="nonzero" fill-opacity="1" /><path clip-path="url(#clip560)" d="M230.463 708.181 L248.82 708.181 L248.82 712.116 L234.746 712.116 L234.746 720.588 Q235.764 720.241 236.783 720.079 Q237.801 719.894 238.82 719.894 Q244.607 719.894 247.986 723.065 Q251.366 726.236 251.366 731.653 Q251.366 737.231 247.894 740.333 Q244.421 743.412 238.102 743.412 Q235.926 743.412 233.658 743.042 Q231.412 742.671 229.005 741.93 L229.005 737.231 Q231.088 738.366 233.31 738.921 Q235.533 739.477 238.009 739.477 Q242.014 739.477 244.352 737.37 Q246.69 735.264 246.69 731.653 Q246.69 728.042 244.352 725.935 Q242.014 723.829 238.009 723.829 Q236.135 723.829 234.26 724.245 Q232.408 724.662 230.463 725.542 L230.463 708.181 Z" fill="#000000" fill-rule="nonzero" fill-opacity="1" /><path clip-path="url(#clip560)" d="M185.001 674.84 L192.639 674.84 L192.639 648.475 L184.329 650.141 L184.329 645.882 L192.593 644.215 L197.269 644.215 L197.269 674.84 L204.908 674.84 L204.908 678.775 L185.001 678.775 L185.001 674.84 Z" fill="#000000" fill-rule="nonzero" fill-opacity="1" /><path clip-path="url(#clip560)" d="M214.352 672.896 L219.236 672.896 L219.236 678.775 L214.352 678.775 L214.352 672.896 Z" fill="#000000" fill-rule="nonzero" fill-opacity="1" /><path clip-path="url(#clip560)" d="M239.422 647.294 Q235.81 647.294 233.982 650.859 Q232.176 654.4 232.176 661.53 Q232.176 668.636 233.982 672.201 Q235.81 675.743 239.422 675.743 Q243.056 675.743 244.861 672.201 Q246.69 668.636 246.69 661.53 Q246.69 654.4 244.861 650.859 Q243.056 647.294 239.422 647.294 M239.422 643.59 Q245.232 643.59 248.287 648.197 Q251.366 652.78 251.366 661.53 Q251.366 670.257 248.287 674.863 Q245.232 679.447 239.422 679.447 Q233.611 679.447 230.533 674.863 Q227.477 670.257 227.477 661.53 Q227.477 652.78 230.533 648.197 Q233.611 643.59 239.422 643.59 Z" fill="#000000" fill-rule="nonzero" fill-opacity="1" /><path clip-path="url(#clip560)" d="M98.4716 790.084 Q104.837 792.566 106.779 794.922 Q108.72 797.277 108.72 801.224 L108.72 805.902 L103.819 805.902 L103.819 802.465 Q103.819 800.046 102.673 798.709 Q101.527 797.372 97.2621 795.749 L94.5885 794.699 L59.5134 809.117 L59.5134 802.911 L87.3952 791.771 L59.5134 780.631 L59.5134 774.424 L98.4716 790.084 Z" fill="#000000" fill-rule="nonzero" fill-opacity="1" /><path clip-path="url(#clip560)" d="M89.7505 759.974 L89.7505 737.535 L95.1614 737.535 L95.1614 767.708 L89.7505 767.708 Q85.963 764.048 79.5972 757.746 Q73.1997 751.412 71.3537 749.789 Q67.8843 746.701 65.4972 745.492 Q63.0782 744.251 60.7548 744.251 Q56.9672 744.251 54.58 746.924 Q52.1929 749.566 52.1929 753.831 Q52.1929 756.855 53.2432 760.229 Q54.2936 763.571 56.4261 767.39 L49.9331 767.39 Q48.3735 763.507 47.5777 760.133 Q46.782 756.759 46.782 753.958 Q46.782 746.574 50.4741 742.182 Q54.1662 737.789 60.341 737.789 Q63.2692 737.789 65.911 738.903 Q68.5209 739.986 72.0857 742.882 Q73.0087 743.678 77.4329 747.943 Q81.8252 752.208 89.7505 759.974 Z" fill="#000000" fill-rule="nonzero" fill-opacity="1" /><path clip-path="url(#clip560)" d="M879.059 552.154 L879.059 599.185 L888.943 599.185 Q901.461 599.185 907.254 593.514 Q913.087 587.842 913.087 575.609 Q913.087 563.456 907.254 557.825 Q901.461 552.154 888.943 552.154 L879.059 552.154 M870.876 545.429 L887.688 545.429 Q905.269 545.429 913.492 552.761 Q921.715 560.053 921.715 575.609 Q921.715 591.245 913.451 598.577 Q905.188 605.909 887.688 605.909 L870.876 605.909 L870.876 545.429 Z" fill="#000000" fill-rule="nonzero" fill-opacity="1" /><path clip-path="url(#clip560)" d="M955.054 583.103 Q946.021 583.103 942.537 585.169 Q939.053 587.235 939.053 592.217 Q939.053 596.187 941.646 598.537 Q944.279 600.846 948.775 600.846 Q954.973 600.846 958.7 596.471 Q962.467 592.055 962.467 584.764 L962.467 583.103 L955.054 583.103 M969.921 580.024 L969.921 605.909 L962.467 605.909 L962.467 599.023 Q959.915 603.155 956.107 605.14 Q952.3 607.084 946.79 607.084 Q939.823 607.084 935.691 603.195 Q931.599 599.266 931.599 592.703 Q931.599 585.047 936.704 581.158 Q941.848 577.269 952.016 577.269 L962.467 577.269 L962.467 576.54 Q962.467 571.396 959.065 568.601 Q955.702 565.765 949.585 565.765 Q945.697 565.765 942.01 566.697 Q938.324 567.628 934.921 569.492 L934.921 562.605 Q939.013 561.025 942.861 560.256 Q946.709 559.445 950.355 559.445 Q960.199 559.445 965.06 564.55 Q969.921 569.654 969.921 580.024 Z" fill="#000000" fill-rule="nonzero" fill-opacity="1" /><path clip-path="url(#clip560)" d="M1020.6 569.249 Q1023.39 564.226 1027.28 561.835 Q1031.17 559.445 1036.44 559.445 Q1043.53 559.445 1047.37 564.428 Q1051.22 569.37 1051.22 578.525 L1051.22 605.909 L1043.73 605.909 L1043.73 578.768 Q1043.73 572.246 1041.42 569.087 Q1039.11 565.927 1034.37 565.927 Q1028.58 565.927 1025.22 569.775 Q1021.85 573.624 1021.85 580.267 L1021.85 605.909 L1014.36 605.909 L1014.36 578.768 Q1014.36 572.206 1012.05 569.087 Q1009.74 565.927 1004.92 565.927 Q999.209 565.927 995.847 569.816 Q992.485 573.664 992.485 580.267 L992.485 605.909 L984.99 605.909 L984.99 560.539 L992.485 560.539 L992.485 567.588 Q995.037 563.415 998.601 561.43 Q1002.17 559.445 1007.07 559.445 Q1012.01 559.445 1015.45 561.957 Q1018.94 564.469 1020.6 569.249 Z" fill="#000000" fill-rule="nonzero" fill-opacity="1" /><path clip-path="url(#clip560)" d="M1073.3 599.104 L1073.3 623.166 L1065.81 623.166 L1065.81 560.539 L1073.3 560.539 L1073.3 567.426 Q1075.65 563.375 1079.21 561.43 Q1082.82 559.445 1087.8 559.445 Q1096.07 559.445 1101.21 566.008 Q1106.4 572.57 1106.4 583.265 Q1106.4 593.959 1101.21 600.522 Q1096.07 607.084 1087.8 607.084 Q1082.82 607.084 1079.21 605.14 Q1075.65 603.155 1073.3 599.104 M1098.66 583.265 Q1098.66 575.041 1095.26 570.383 Q1091.89 565.684 1085.98 565.684 Q1080.07 565.684 1076.66 570.383 Q1073.3 575.041 1073.3 583.265 Q1073.3 591.488 1076.66 596.187 Q1080.07 600.846 1085.98 600.846 Q1091.89 600.846 1095.26 596.187 Q1098.66 591.488 1098.66 583.265 Z" fill="#000000" fill-rule="nonzero" fill-opacity="1" /><path clip-path="url(#clip560)" d="M1157.56 581.361 L1157.56 585.007 L1123.29 585.007 Q1123.77 592.703 1127.91 596.754 Q1132.08 600.765 1139.49 600.765 Q1143.79 600.765 1147.8 599.711 Q1151.85 598.658 1155.82 596.552 L1155.82 603.6 Q1151.81 605.302 1147.59 606.193 Q1143.38 607.084 1139.05 607.084 Q1128.19 607.084 1121.83 600.765 Q1115.51 594.445 1115.51 583.67 Q1115.51 572.53 1121.51 566.008 Q1127.54 559.445 1137.75 559.445 Q1146.91 559.445 1152.21 565.36 Q1157.56 571.234 1157.56 581.361 M1150.11 579.173 Q1150.02 573.057 1146.66 569.411 Q1143.34 565.765 1137.83 565.765 Q1131.59 565.765 1127.83 569.289 Q1124.1 572.813 1123.53 579.214 L1150.11 579.173 Z" fill="#000000" fill-rule="nonzero" fill-opacity="1" /><path clip-path="url(#clip560)" d="M1199.65 567.426 L1199.65 542.877 L1207.1 542.877 L1207.1 605.909 L1199.65 605.909 L1199.65 599.104 Q1197.3 603.155 1193.69 605.14 Q1190.13 607.084 1185.11 607.084 Q1176.88 607.084 1171.7 600.522 Q1166.55 593.959 1166.55 583.265 Q1166.55 572.57 1171.7 566.008 Q1176.88 559.445 1185.11 559.445 Q1190.13 559.445 1193.69 561.43 Q1197.3 563.375 1199.65 567.426 M1174.25 583.265 Q1174.25 591.488 1177.61 596.187 Q1181.01 600.846 1186.93 600.846 Q1192.84 600.846 1196.25 596.187 Q1199.65 591.488 1199.65 583.265 Q1199.65 575.041 1196.25 570.383 Q1192.84 565.684 1186.93 565.684 Q1181.01 565.684 1177.61 570.383 Q1174.25 575.041 1174.25 583.265 Z" fill="#000000" fill-rule="nonzero" fill-opacity="1" /><path clip-path="url(#clip560)" d="M1294.44 550.088 L1294.44 558.716 Q1290.31 554.868 1285.61 552.964 Q1280.95 551.06 1275.68 551.06 Q1265.31 551.06 1259.8 557.42 Q1254.29 563.739 1254.29 575.73 Q1254.29 587.68 1259.8 594.04 Q1265.31 600.36 1275.68 600.36 Q1280.95 600.36 1285.61 598.456 Q1290.31 596.552 1294.44 592.703 L1294.44 601.251 Q1290.14 604.167 1285.32 605.626 Q1280.54 607.084 1275.2 607.084 Q1261.46 607.084 1253.57 598.699 Q1245.67 590.273 1245.67 575.73 Q1245.67 561.147 1253.57 552.761 Q1261.46 544.336 1275.2 544.336 Q1280.63 544.336 1285.41 545.794 Q1290.23 547.212 1294.44 550.088 Z" fill="#000000" fill-rule="nonzero" fill-opacity="1" /><path clip-path="url(#clip560)" d="M1324.33 565.765 Q1318.34 565.765 1314.86 570.464 Q1311.37 575.122 1311.37 583.265 Q1311.37 591.407 1314.81 596.106 Q1318.3 600.765 1324.33 600.765 Q1330.29 600.765 1333.77 596.066 Q1337.26 591.367 1337.26 583.265 Q1337.26 575.203 1333.77 570.504 Q1330.29 565.765 1324.33 565.765 M1324.33 559.445 Q1334.06 559.445 1339.61 565.765 Q1345.16 572.084 1345.16 583.265 Q1345.16 594.405 1339.61 600.765 Q1334.06 607.084 1324.33 607.084 Q1314.57 607.084 1309.02 600.765 Q1303.51 594.405 1303.51 583.265 Q1303.51 572.084 1309.02 565.765 Q1314.57 559.445 1324.33 559.445 Z" fill="#000000" fill-rule="nonzero" fill-opacity="1" /><path clip-path="url(#clip560)" d="M1386.43 561.876 L1386.43 568.925 Q1383.28 567.304 1379.87 566.494 Q1376.47 565.684 1372.82 565.684 Q1367.27 565.684 1364.48 567.385 Q1361.72 569.087 1361.72 572.489 Q1361.72 575.082 1363.71 576.581 Q1365.69 578.039 1371.69 579.376 L1374.24 579.943 Q1382.18 581.644 1385.5 584.764 Q1388.87 587.842 1388.87 593.392 Q1388.87 599.711 1383.84 603.398 Q1378.86 607.084 1370.11 607.084 Q1366.46 607.084 1362.49 606.355 Q1358.56 605.666 1354.19 604.248 L1354.19 596.552 Q1358.32 598.699 1362.33 599.792 Q1366.34 600.846 1370.27 600.846 Q1375.54 600.846 1378.37 599.063 Q1381.21 597.24 1381.21 593.959 Q1381.21 590.921 1379.14 589.301 Q1377.12 587.68 1370.19 586.181 L1367.6 585.574 Q1360.67 584.115 1357.59 581.118 Q1354.51 578.08 1354.51 572.813 Q1354.51 566.413 1359.05 562.929 Q1363.59 559.445 1371.93 559.445 Q1376.06 559.445 1379.71 560.053 Q1383.36 560.661 1386.43 561.876 Z" fill="#000000" fill-rule="nonzero" fill-opacity="1" /><path clip-path="url(#clip560)" d="M1400.73 560.539 L1408.19 560.539 L1408.19 605.909 L1400.73 605.909 L1400.73 560.539 M1400.73 542.877 L1408.19 542.877 L1408.19 552.316 L1400.73 552.316 L1400.73 542.877 Z" fill="#000000" fill-rule="nonzero" fill-opacity="1" /><path clip-path="url(#clip560)" d="M1461.5 578.525 L1461.5 605.909 L1454.04 605.909 L1454.04 578.768 Q1454.04 572.327 1451.53 569.127 Q1449.02 565.927 1444 565.927 Q1437.96 565.927 1434.48 569.775 Q1430.99 573.624 1430.99 580.267 L1430.99 605.909 L1423.5 605.909 L1423.5 560.539 L1430.99 560.539 L1430.99 567.588 Q1433.67 563.496 1437.27 561.471 Q1440.92 559.445 1445.66 559.445 Q1453.48 559.445 1457.49 564.307 Q1461.5 569.127 1461.5 578.525 Z" fill="#000000" fill-rule="nonzero" fill-opacity="1" /><path clip-path="url(#clip560)" d="M1515.17 581.361 L1515.17 585.007 L1480.9 585.007 Q1481.39 592.703 1485.52 596.754 Q1489.69 600.765 1497.11 600.765 Q1501.4 600.765 1505.41 599.711 Q1509.46 598.658 1513.43 596.552 L1513.43 603.6 Q1509.42 605.302 1505.21 606.193 Q1500.99 607.084 1496.66 607.084 Q1485.8 607.084 1479.44 600.765 Q1473.12 594.445 1473.12 583.67 Q1473.12 572.53 1479.12 566.008 Q1485.16 559.445 1495.36 559.445 Q1504.52 559.445 1509.83 565.36 Q1515.17 571.234 1515.17 581.361 M1507.72 579.173 Q1507.64 573.057 1504.28 569.411 Q1500.95 565.765 1495.44 565.765 Q1489.21 565.765 1485.44 569.289 Q1481.71 572.813 1481.15 579.214 L1507.72 579.173 Z" fill="#000000" fill-rule="nonzero" fill-opacity="1" /><path clip-path="url(#clip560)" d="M1548.71 545.429 L1556.98 545.429 L1569.7 596.552 L1582.38 545.429 L1591.57 545.429 L1604.29 596.552 L1616.97 545.429 L1625.28 545.429 L1610.09 605.909 L1599.8 605.909 L1587.04 553.41 L1574.15 605.909 L1563.86 605.909 L1548.71 545.429 Z" fill="#000000" fill-rule="nonzero" fill-opacity="1" /><path clip-path="url(#clip560)" d="M1651.12 583.103 Q1642.09 583.103 1638.6 585.169 Q1635.12 587.235 1635.12 592.217 Q1635.12 596.187 1637.71 598.537 Q1640.35 600.846 1644.84 600.846 Q1651.04 600.846 1654.77 596.471 Q1658.53 592.055 1658.53 584.764 L1658.53 583.103 L1651.12 583.103 M1665.99 580.024 L1665.99 605.909 L1658.53 605.909 L1658.53 599.023 Q1655.98 603.155 1652.17 605.14 Q1648.37 607.084 1642.86 607.084 Q1635.89 607.084 1631.76 603.195 Q1627.67 599.266 1627.67 592.703 Q1627.67 585.047 1632.77 581.158 Q1637.92 577.269 1648.08 577.269 L1658.53 577.269 L1658.53 576.54 Q1658.53 571.396 1655.13 568.601 Q1651.77 565.765 1645.65 565.765 Q1641.76 565.765 1638.08 566.697 Q1634.39 567.628 1630.99 569.492 L1630.99 562.605 Q1635.08 561.025 1638.93 560.256 Q1642.78 559.445 1646.42 559.445 Q1656.27 559.445 1661.13 564.55 Q1665.99 569.654 1665.99 580.024 Z" fill="#000000" fill-rule="nonzero" fill-opacity="1" /><path clip-path="url(#clip560)" d="M1675.99 560.539 L1683.89 560.539 L1698.07 598.618 L1712.25 560.539 L1720.15 560.539 L1703.13 605.909 L1693.01 605.909 L1675.99 560.539 Z" fill="#000000" fill-rule="nonzero" fill-opacity="1" /><path clip-path="url(#clip560)" d="M1769.25 581.361 L1769.25 585.007 L1734.97 585.007 Q1735.46 592.703 1739.59 596.754 Q1743.77 600.765 1751.18 600.765 Q1755.47 600.765 1759.48 599.711 Q1763.53 598.658 1767.5 596.552 L1767.5 603.6 Q1763.49 605.302 1759.28 606.193 Q1755.07 607.084 1750.73 607.084 Q1739.88 607.084 1733.52 600.765 Q1727.2 594.445 1727.2 583.67 Q1727.2 572.53 1733.19 566.008 Q1739.23 559.445 1749.44 559.445 Q1758.59 559.445 1763.9 565.36 Q1769.25 571.234 1769.25 581.361 M1761.79 579.173 Q1761.71 573.057 1758.35 569.411 Q1755.03 565.765 1749.52 565.765 Q1743.28 565.765 1739.51 569.289 Q1735.78 572.813 1735.22 579.214 L1761.79 579.173 Z" fill="#000000" fill-rule="nonzero" fill-opacity="1" /><polyline clip-path="url(#clip563)" style="stroke:#009af9; stroke-linecap:round; stroke-linejoin:round; stroke-width:4; stroke-opacity:1; fill:none" points="345.82,663.401 365.502,666.528 385.184,670.821 404.865,676.214 424.547,682.632 444.228,689.989 463.91,698.194 483.592,707.148 503.273,716.747 522.955,726.882 542.637,737.442 562.318,748.311 582,759.376 601.681,770.523 621.363,781.637 641.045,792.609 660.726,803.332 680.408,813.704 700.09,823.628 719.771,833.014 739.453,841.778 759.135,849.846 778.816,857.15 798.498,863.633 818.179,869.246 837.861,873.951 857.543,877.717 877.224,880.528 896.906,882.372 916.588,883.251 936.269,883.175 955.951,882.164 975.632,880.247 995.314,877.46 1015,873.849 1034.68,869.466 1054.36,864.369 1074.04,858.625 1093.72,852.304 1113.4,845.479 1133.09,838.229 1152.77,830.636 1172.45,822.781 1192.13,814.748 1211.81,806.621 1231.49,798.484 1251.18,790.417 1270.86,782.499 1290.54,774.808 1310.22,767.416 1329.9,760.389 1349.58,753.792 1369.26,747.681 1388.95,742.109 1408.63,737.119 1428.31,732.751 1447.99,729.036 1467.67,725.998 1487.35,723.653 1507.04,722.013 1526.72,721.078 1546.4,720.844 1566.08,721.301 1585.76,722.429 1605.44,724.204 1625.13,726.596 1644.81,729.568 1664.49,733.079 1684.17,737.083 1703.85,741.532 1723.53,746.37 1743.22,751.544 1762.9,756.993 1782.58,762.658 1802.26,768.479 1821.94,774.393 1841.62,780.341 1861.31,786.262 1880.99,792.097 1900.67,797.79 1920.35,803.286 1940.03,808.536 1959.71,813.49 1979.4,818.106 1999.08,822.344 2018.76,826.169 2038.44,829.551 2058.12,832.465 2077.8,834.892 2097.49,836.816 2117.17,838.229 2136.85,839.126 2156.53,839.509 2176.21,839.384 2195.89,838.762 2215.57,837.66 2235.26,836.097 2254.94,834.099 2274.62,831.695 2294.3,828.915 "/>
<path clip-path="url(#clip560)" d="M287.366 1423.18 L2352.76 1423.18 L2352.76 1190.14 L287.366 1190.14  Z" fill="#ffffff" fill-rule="evenodd" fill-opacity="1"/>
<defs>
  <clipPath id="clip564">
    <rect x="287" y="1190" width="2066" height="234"/>
  </clipPath>
</defs>
<polyline clip-path="url(#clip564)" style="stroke:#000000; stroke-linecap:round; stroke-linejoin:round; stroke-width:2; stroke-opacity:0.1; fill:none" points="326.139,1423.18 326.139,1190.14 "/>
<polyline clip-path="url(#clip564)" style="stroke:#000000; stroke-linecap:round; stroke-linejoin:round; stroke-width:2; stroke-opacity:0.1; fill:none" points="818.179,1423.18 818.179,1190.14 "/>
<polyline clip-path="url(#clip564)" style="stroke:#000000; stroke-linecap:round; stroke-linejoin:round; stroke-width:2; stroke-opacity:0.1; fill:none" points="1310.22,1423.18 1310.22,1190.14 "/>
<polyline clip-path="url(#clip564)" style="stroke:#000000; stroke-linecap:round; stroke-linejoin:round; stroke-width:2; stroke-opacity:0.1; fill:none" points="1802.26,1423.18 1802.26,1190.14 "/>
<polyline clip-path="url(#clip564)" style="stroke:#000000; stroke-linecap:round; stroke-linejoin:round; stroke-width:2; stroke-opacity:0.1; fill:none" points="2294.3,1423.18 2294.3,1190.14 "/>
<polyline clip-path="url(#clip564)" style="stroke:#000000; stroke-linecap:round; stroke-linejoin:round; stroke-width:2; stroke-opacity:0.1; fill:none" points="287.366,1392.08 2352.76,1392.08 "/>
<polyline clip-path="url(#clip564)" style="stroke:#000000; stroke-linecap:round; stroke-linejoin:round; stroke-width:2; stroke-opacity:0.1; fill:none" points="287.366,1343.25 2352.76,1343.25 "/>
<polyline clip-path="url(#clip564)" style="stroke:#000000; stroke-linecap:round; stroke-linejoin:round; stroke-width:2; stroke-opacity:0.1; fill:none" points="287.366,1294.41 2352.76,1294.41 "/>
<polyline clip-path="url(#clip564)" style="stroke:#000000; stroke-linecap:round; stroke-linejoin:round; stroke-width:2; stroke-opacity:0.1; fill:none" points="287.366,1245.57 2352.76,1245.57 "/>
<polyline clip-path="url(#clip564)" style="stroke:#000000; stroke-linecap:round; stroke-linejoin:round; stroke-width:2; stroke-opacity:0.1; fill:none" points="287.366,1196.73 2352.76,1196.73 "/>
<polyline clip-path="url(#clip560)" style="stroke:#000000; stroke-linecap:round; stroke-linejoin:round; stroke-width:4; stroke-opacity:1; fill:none" points="287.366,1423.18 2352.76,1423.18 "/>
<polyline clip-path="url(#clip560)" style="stroke:#000000; stroke-linecap:round; stroke-linejoin:round; stroke-width:4; stroke-opacity:1; fill:none" points="326.139,1423.18 326.139,1404.28 "/>
<polyline clip-path="url(#clip560)" style="stroke:#000000; stroke-linecap:round; stroke-linejoin:round; stroke-width:4; stroke-opacity:1; fill:none" points="818.179,1423.18 818.179,1404.28 "/>
<polyline clip-path="url(#clip560)" style="stroke:#000000; stroke-linecap:round; stroke-linejoin:round; stroke-width:4; stroke-opacity:1; fill:none" points="1310.22,1423.18 1310.22,1404.28 "/>
<polyline clip-path="url(#clip560)" style="stroke:#000000; stroke-linecap:round; stroke-linejoin:round; stroke-width:4; stroke-opacity:1; fill:none" points="1802.26,1423.18 1802.26,1404.28 "/>
<polyline clip-path="url(#clip560)" style="stroke:#000000; stroke-linecap:round; stroke-linejoin:round; stroke-width:4; stroke-opacity:1; fill:none" points="2294.3,1423.18 2294.3,1404.28 "/>
<path clip-path="url(#clip560)" d="M326.139 1454.1 Q322.528 1454.1 320.699 1457.66 Q318.893 1461.2 318.893 1468.33 Q318.893 1475.44 320.699 1479.01 Q322.528 1482.55 326.139 1482.55 Q329.773 1482.55 331.578 1479.01 Q333.407 1475.44 333.407 1468.33 Q333.407 1461.2 331.578 1457.66 Q329.773 1454.1 326.139 1454.1 M326.139 1450.39 Q331.949 1450.39 335.004 1455 Q338.083 1459.58 338.083 1468.33 Q338.083 1477.06 335.004 1481.67 Q331.949 1486.25 326.139 1486.25 Q320.329 1486.25 317.25 1481.67 Q314.194 1477.06 314.194 1468.33 Q314.194 1459.58 317.25 1455 Q320.329 1450.39 326.139 1450.39 Z" fill="#000000" fill-rule="nonzero" fill-opacity="1" /><path clip-path="url(#clip560)" d="M797.45 1481.64 L813.77 1481.64 L813.77 1485.58 L791.825 1485.58 L791.825 1481.64 Q794.487 1478.89 799.071 1474.26 Q803.677 1469.61 804.858 1468.27 Q807.103 1465.74 807.983 1464.01 Q808.885 1462.25 808.885 1460.56 Q808.885 1457.8 806.941 1456.07 Q805.02 1454.33 801.918 1454.33 Q799.719 1454.33 797.265 1455.09 Q794.835 1455.86 792.057 1457.41 L792.057 1452.69 Q794.881 1451.55 797.335 1450.97 Q799.788 1450.39 801.825 1450.39 Q807.196 1450.39 810.39 1453.08 Q813.585 1455.77 813.585 1460.26 Q813.585 1462.39 812.774 1464.31 Q811.987 1466.2 809.881 1468.8 Q809.302 1469.47 806.2 1472.69 Q803.098 1475.88 797.45 1481.64 Z" fill="#000000" fill-rule="nonzero" fill-opacity="1" /><path clip-path="url(#clip560)" d="M823.631 1451.02 L841.987 1451.02 L841.987 1454.96 L827.913 1454.96 L827.913 1463.43 Q828.932 1463.08 829.95 1462.92 Q830.969 1462.73 831.987 1462.73 Q837.774 1462.73 841.154 1465.9 Q844.533 1469.08 844.533 1474.49 Q844.533 1480.07 841.061 1483.17 Q837.589 1486.25 831.27 1486.25 Q829.094 1486.25 826.825 1485.88 Q824.58 1485.51 822.172 1484.77 L822.172 1480.07 Q824.256 1481.2 826.478 1481.76 Q828.7 1482.32 831.177 1482.32 Q835.182 1482.32 837.52 1480.21 Q839.858 1478.1 839.858 1474.49 Q839.858 1470.88 837.52 1468.77 Q835.182 1466.67 831.177 1466.67 Q829.302 1466.67 827.427 1467.08 Q825.575 1467.5 823.631 1468.38 L823.631 1451.02 Z" fill="#000000" fill-rule="nonzero" fill-opacity="1" /><path clip-path="url(#clip560)" d="M1284.92 1451.02 L1303.28 1451.02 L1303.28 1454.96 L1289.2 1454.96 L1289.2 1463.43 Q1290.22 1463.08 1291.24 1462.92 Q1292.26 1462.73 1293.28 1462.73 Q1299.06 1462.73 1302.44 1465.9 Q1305.82 1469.08 1305.82 1474.49 Q1305.82 1480.07 1302.35 1483.17 Q1298.88 1486.25 1292.56 1486.25 Q1290.38 1486.25 1288.11 1485.88 Q1285.87 1485.51 1283.46 1484.77 L1283.46 1480.07 Q1285.54 1481.2 1287.77 1481.76 Q1289.99 1482.32 1292.47 1482.32 Q1296.47 1482.32 1298.81 1480.21 Q1301.15 1478.1 1301.15 1474.49 Q1301.15 1470.88 1298.81 1468.77 Q1296.47 1466.67 1292.47 1466.67 Q1290.59 1466.67 1288.72 1467.08 Q1286.86 1467.5 1284.92 1468.38 L1284.92 1451.02 Z" fill="#000000" fill-rule="nonzero" fill-opacity="1" /><path clip-path="url(#clip560)" d="M1325.03 1454.1 Q1321.42 1454.1 1319.6 1457.66 Q1317.79 1461.2 1317.79 1468.33 Q1317.79 1475.44 1319.6 1479.01 Q1321.42 1482.55 1325.03 1482.55 Q1328.67 1482.55 1330.47 1479.01 Q1332.3 1475.44 1332.3 1468.33 Q1332.3 1461.2 1330.47 1457.66 Q1328.67 1454.1 1325.03 1454.1 M1325.03 1450.39 Q1330.84 1450.39 1333.9 1455 Q1336.98 1459.58 1336.98 1468.33 Q1336.98 1477.06 1333.9 1481.67 Q1330.84 1486.25 1325.03 1486.25 Q1319.22 1486.25 1316.15 1481.67 Q1313.09 1477.06 1313.09 1468.33 Q1313.09 1459.58 1316.15 1455 Q1319.22 1450.39 1325.03 1450.39 Z" fill="#000000" fill-rule="nonzero" fill-opacity="1" /><path clip-path="url(#clip560)" d="M1776.12 1451.02 L1798.34 1451.02 L1798.34 1453.01 L1785.79 1485.58 L1780.91 1485.58 L1792.71 1454.96 L1776.12 1454.96 L1776.12 1451.02 Z" fill="#000000" fill-rule="nonzero" fill-opacity="1" /><path clip-path="url(#clip560)" d="M1807.5 1451.02 L1825.86 1451.02 L1825.86 1454.96 L1811.79 1454.96 L1811.79 1463.43 Q1812.8 1463.08 1813.82 1462.92 Q1814.84 1462.73 1815.86 1462.73 Q1821.65 1462.73 1825.03 1465.9 Q1828.41 1469.08 1828.41 1474.49 Q1828.41 1480.07 1824.93 1483.17 Q1821.46 1486.25 1815.14 1486.25 Q1812.97 1486.25 1810.7 1485.88 Q1808.45 1485.51 1806.05 1484.77 L1806.05 1480.07 Q1808.13 1481.2 1810.35 1481.76 Q1812.57 1482.32 1815.05 1482.32 Q1819.05 1482.32 1821.39 1480.21 Q1823.73 1478.1 1823.73 1474.49 Q1823.73 1470.88 1821.39 1468.77 Q1819.05 1466.67 1815.05 1466.67 Q1813.18 1466.67 1811.3 1467.08 Q1809.45 1467.5 1807.5 1468.38 L1807.5 1451.02 Z" fill="#000000" fill-rule="nonzero" fill-opacity="1" /><path clip-path="url(#clip560)" d="M2253.91 1481.64 L2261.55 1481.64 L2261.55 1455.28 L2253.24 1456.95 L2253.24 1452.69 L2261.5 1451.02 L2266.18 1451.02 L2266.18 1481.64 L2273.82 1481.64 L2273.82 1485.58 L2253.91 1485.58 L2253.91 1481.64 Z" fill="#000000" fill-rule="nonzero" fill-opacity="1" /><path clip-path="url(#clip560)" d="M2293.26 1454.1 Q2289.65 1454.1 2287.82 1457.66 Q2286.01 1461.2 2286.01 1468.33 Q2286.01 1475.44 2287.82 1479.01 Q2289.65 1482.55 2293.26 1482.55 Q2296.89 1482.55 2298.7 1479.01 Q2300.53 1475.44 2300.53 1468.33 Q2300.53 1461.2 2298.7 1457.66 Q2296.89 1454.1 2293.26 1454.1 M2293.26 1450.39 Q2299.07 1450.39 2302.13 1455 Q2305.2 1459.58 2305.2 1468.33 Q2305.2 1477.06 2302.13 1481.67 Q2299.07 1486.25 2293.26 1486.25 Q2287.45 1486.25 2284.37 1481.67 Q2281.32 1477.06 2281.32 1468.33 Q2281.32 1459.58 2284.37 1455 Q2287.45 1450.39 2293.26 1450.39 Z" fill="#000000" fill-rule="nonzero" fill-opacity="1" /><path clip-path="url(#clip560)" d="M2323.42 1454.1 Q2319.81 1454.1 2317.98 1457.66 Q2316.18 1461.2 2316.18 1468.33 Q2316.18 1475.44 2317.98 1479.01 Q2319.81 1482.55 2323.42 1482.55 Q2327.06 1482.55 2328.86 1479.01 Q2330.69 1475.44 2330.69 1468.33 Q2330.69 1461.2 2328.86 1457.66 Q2327.06 1454.1 2323.42 1454.1 M2323.42 1450.39 Q2329.23 1450.39 2332.29 1455 Q2335.37 1459.58 2335.37 1468.33 Q2335.37 1477.06 2332.29 1481.67 Q2329.23 1486.25 2323.42 1486.25 Q2317.61 1486.25 2314.53 1481.67 Q2311.48 1477.06 2311.48 1468.33 Q2311.48 1459.58 2314.53 1455 Q2317.61 1450.39 2323.42 1450.39 Z" fill="#000000" fill-rule="nonzero" fill-opacity="1" /><path clip-path="url(#clip560)" d="M1336.68 1532.4 L1323.78 1549.74 L1337.34 1568.04 L1330.44 1568.04 L1320.06 1554.04 L1309.68 1568.04 L1302.78 1568.04 L1316.62 1549.39 L1303.96 1532.4 L1310.86 1532.4 L1320.32 1545.1 L1329.77 1532.4 L1336.68 1532.4 Z" fill="#000000" fill-rule="nonzero" fill-opacity="1" /><polyline clip-path="url(#clip560)" style="stroke:#000000; stroke-linecap:round; stroke-linejoin:round; stroke-width:4; stroke-opacity:1; fill:none" points="287.366,1423.18 287.366,1190.14 "/>
<polyline clip-path="url(#clip560)" style="stroke:#000000; stroke-linecap:round; stroke-linejoin:round; stroke-width:4; stroke-opacity:1; fill:none" points="287.366,1392.08 306.264,1392.08 "/>
<polyline clip-path="url(#clip560)" style="stroke:#000000; stroke-linecap:round; stroke-linejoin:round; stroke-width:4; stroke-opacity:1; fill:none" points="287.366,1343.25 306.264,1343.25 "/>
<polyline clip-path="url(#clip560)" style="stroke:#000000; stroke-linecap:round; stroke-linejoin:round; stroke-width:4; stroke-opacity:1; fill:none" points="287.366,1294.41 306.264,1294.41 "/>
<polyline clip-path="url(#clip560)" style="stroke:#000000; stroke-linecap:round; stroke-linejoin:round; stroke-width:4; stroke-opacity:1; fill:none" points="287.366,1245.57 306.264,1245.57 "/>
<polyline clip-path="url(#clip560)" style="stroke:#000000; stroke-linecap:round; stroke-linejoin:round; stroke-width:4; stroke-opacity:1; fill:none" points="287.366,1196.73 306.264,1196.73 "/>
<path clip-path="url(#clip560)" d="M195.787 1377.88 Q192.176 1377.88 190.348 1381.45 Q188.542 1384.99 188.542 1392.12 Q188.542 1399.23 190.348 1402.79 Q192.176 1406.33 195.787 1406.33 Q199.422 1406.33 201.227 1402.79 Q203.056 1399.23 203.056 1392.12 Q203.056 1384.99 201.227 1381.45 Q199.422 1377.88 195.787 1377.88 M195.787 1374.18 Q201.598 1374.18 204.653 1378.79 Q207.732 1383.37 207.732 1392.12 Q207.732 1400.85 204.653 1405.45 Q201.598 1410.04 195.787 1410.04 Q189.977 1410.04 186.899 1405.45 Q183.843 1400.85 183.843 1392.12 Q183.843 1383.37 186.899 1378.79 Q189.977 1374.18 195.787 1374.18 Z" fill="#000000" fill-rule="nonzero" fill-opacity="1" /><path clip-path="url(#clip560)" d="M215.949 1403.48 L220.834 1403.48 L220.834 1409.36 L215.949 1409.36 L215.949 1403.48 Z" fill="#000000" fill-rule="nonzero" fill-opacity="1" /><path clip-path="url(#clip560)" d="M235.047 1405.43 L251.366 1405.43 L251.366 1409.36 L229.422 1409.36 L229.422 1405.43 Q232.084 1402.67 236.667 1398.05 Q241.273 1393.39 242.454 1392.05 Q244.699 1389.53 245.579 1387.79 Q246.482 1386.03 246.482 1384.34 Q246.482 1381.59 244.537 1379.85 Q242.616 1378.11 239.514 1378.11 Q237.315 1378.11 234.861 1378.88 Q232.431 1379.64 229.653 1381.19 L229.653 1376.47 Q232.477 1375.34 234.931 1374.76 Q237.384 1374.18 239.422 1374.18 Q244.792 1374.18 247.986 1376.86 Q251.181 1379.55 251.181 1384.04 Q251.181 1386.17 250.371 1388.09 Q249.584 1389.99 247.477 1392.58 Q246.898 1393.25 243.797 1396.47 Q240.695 1399.67 235.047 1405.43 Z" fill="#000000" fill-rule="nonzero" fill-opacity="1" /><path clip-path="url(#clip560)" d="M193.704 1329.05 Q190.093 1329.05 188.264 1332.61 Q186.459 1336.15 186.459 1343.28 Q186.459 1350.39 188.264 1353.95 Q190.093 1357.49 193.704 1357.49 Q197.338 1357.49 199.144 1353.95 Q200.973 1350.39 200.973 1343.28 Q200.973 1336.15 199.144 1332.61 Q197.338 1329.05 193.704 1329.05 M193.704 1325.34 Q199.514 1325.34 202.57 1329.95 Q205.649 1334.53 205.649 1343.28 Q205.649 1352.01 202.57 1356.61 Q199.514 1361.2 193.704 1361.2 Q187.894 1361.2 184.815 1356.61 Q181.76 1352.01 181.76 1343.28 Q181.76 1334.53 184.815 1329.95 Q187.894 1325.34 193.704 1325.34 Z" fill="#000000" fill-rule="nonzero" fill-opacity="1" /><path clip-path="url(#clip560)" d="M213.866 1354.65 L218.75 1354.65 L218.75 1360.53 L213.866 1360.53 L213.866 1354.65 Z" fill="#000000" fill-rule="nonzero" fill-opacity="1" /><path clip-path="url(#clip560)" d="M241.783 1330.04 L229.977 1348.49 L241.783 1348.49 L241.783 1330.04 M240.556 1325.97 L246.435 1325.97 L246.435 1348.49 L251.366 1348.49 L251.366 1352.38 L246.435 1352.38 L246.435 1360.53 L241.783 1360.53 L241.783 1352.38 L226.181 1352.38 L226.181 1347.86 L240.556 1325.97 Z" fill="#000000" fill-rule="nonzero" fill-opacity="1" /><path clip-path="url(#clip560)" d="M194.028 1280.21 Q190.417 1280.21 188.588 1283.77 Q186.783 1287.31 186.783 1294.44 Q186.783 1301.55 188.588 1305.12 Q190.417 1308.66 194.028 1308.66 Q197.662 1308.66 199.468 1305.12 Q201.297 1301.55 201.297 1294.44 Q201.297 1287.31 199.468 1283.77 Q197.662 1280.21 194.028 1280.21 M194.028 1276.5 Q199.838 1276.5 202.894 1281.11 Q205.973 1285.69 205.973 1294.44 Q205.973 1303.17 202.894 1307.78 Q199.838 1312.36 194.028 1312.36 Q188.218 1312.36 185.139 1307.78 Q182.084 1303.17 182.084 1294.44 Q182.084 1285.69 185.139 1281.11 Q188.218 1276.5 194.028 1276.5 Z" fill="#000000" fill-rule="nonzero" fill-opacity="1" /><path clip-path="url(#clip560)" d="M214.19 1305.81 L219.074 1305.81 L219.074 1311.69 L214.19 1311.69 L214.19 1305.81 Z" fill="#000000" fill-rule="nonzero" fill-opacity="1" /><path clip-path="url(#clip560)" d="M239.838 1292.55 Q236.69 1292.55 234.838 1294.7 Q233.01 1296.85 233.01 1300.6 Q233.01 1304.33 234.838 1306.5 Q236.69 1308.66 239.838 1308.66 Q242.986 1308.66 244.815 1306.5 Q246.667 1304.33 246.667 1300.6 Q246.667 1296.85 244.815 1294.7 Q242.986 1292.55 239.838 1292.55 M249.121 1277.89 L249.121 1282.15 Q247.361 1281.32 245.556 1280.88 Q243.773 1280.44 242.014 1280.44 Q237.384 1280.44 234.931 1283.56 Q232.5 1286.69 232.153 1293.01 Q233.519 1291 235.579 1289.93 Q237.639 1288.84 240.116 1288.84 Q245.324 1288.84 248.334 1292.01 Q251.366 1295.16 251.366 1300.6 Q251.366 1305.93 248.218 1309.14 Q245.07 1312.36 239.838 1312.36 Q233.843 1312.36 230.672 1307.78 Q227.5 1303.17 227.5 1294.44 Q227.5 1286.25 231.389 1281.39 Q235.278 1276.5 241.829 1276.5 Q243.588 1276.5 245.371 1276.85 Q247.176 1277.2 249.121 1277.89 Z" fill="#000000" fill-rule="nonzero" fill-opacity="1" /><path clip-path="url(#clip560)" d="M194.283 1231.37 Q190.672 1231.37 188.843 1234.94 Q187.038 1238.48 187.038 1245.61 Q187.038 1252.71 188.843 1256.28 Q190.672 1259.82 194.283 1259.82 Q197.917 1259.82 199.723 1256.28 Q201.551 1252.71 201.551 1245.61 Q201.551 1238.48 199.723 1234.94 Q197.917 1231.37 194.283 1231.37 M194.283 1227.67 Q200.093 1227.67 203.149 1232.27 Q206.227 1236.86 206.227 1245.61 Q206.227 1254.33 203.149 1258.94 Q200.093 1263.52 194.283 1263.52 Q188.473 1263.52 185.394 1258.94 Q182.338 1254.33 182.338 1245.61 Q182.338 1236.86 185.394 1232.27 Q188.473 1227.67 194.283 1227.67 Z" fill="#000000" fill-rule="nonzero" fill-opacity="1" /><path clip-path="url(#clip560)" d="M214.445 1256.97 L219.329 1256.97 L219.329 1262.85 L214.445 1262.85 L214.445 1256.97 Z" fill="#000000" fill-rule="nonzero" fill-opacity="1" /><path clip-path="url(#clip560)" d="M239.514 1246.44 Q236.181 1246.44 234.26 1248.22 Q232.361 1250 232.361 1253.13 Q232.361 1256.25 234.26 1258.04 Q236.181 1259.82 239.514 1259.82 Q242.847 1259.82 244.769 1258.04 Q246.69 1256.23 246.69 1253.13 Q246.69 1250 244.769 1248.22 Q242.871 1246.44 239.514 1246.44 M234.838 1244.45 Q231.829 1243.71 230.139 1241.65 Q228.473 1239.59 228.473 1236.63 Q228.473 1232.48 231.412 1230.07 Q234.375 1227.67 239.514 1227.67 Q244.676 1227.67 247.616 1230.07 Q250.556 1232.48 250.556 1236.63 Q250.556 1239.59 248.866 1241.65 Q247.199 1243.71 244.213 1244.45 Q247.593 1245.24 249.468 1247.53 Q251.366 1249.82 251.366 1253.13 Q251.366 1258.15 248.287 1260.84 Q245.232 1263.52 239.514 1263.52 Q233.797 1263.52 230.718 1260.84 Q227.662 1258.15 227.662 1253.13 Q227.662 1249.82 229.56 1247.53 Q231.459 1245.24 234.838 1244.45 M233.125 1237.06 Q233.125 1239.75 234.792 1241.25 Q236.482 1242.76 239.514 1242.76 Q242.523 1242.76 244.213 1241.25 Q245.926 1239.75 245.926 1237.06 Q245.926 1234.38 244.213 1232.88 Q242.523 1231.37 239.514 1231.37 Q236.482 1231.37 234.792 1232.88 Q233.125 1234.38 233.125 1237.06 Z" fill="#000000" fill-rule="nonzero" fill-opacity="1" /><path clip-path="url(#clip560)" d="M185.001 1210.08 L192.639 1210.08 L192.639 1183.71 L184.329 1185.38 L184.329 1181.12 L192.593 1179.45 L197.269 1179.45 L197.269 1210.08 L204.908 1210.08 L204.908 1214.01 L185.001 1214.01 L185.001 1210.08 Z" fill="#000000" fill-rule="nonzero" fill-opacity="1" /><path clip-path="url(#clip560)" d="M214.352 1208.13 L219.236 1208.13 L219.236 1214.01 L214.352 1214.01 L214.352 1208.13 Z" fill="#000000" fill-rule="nonzero" fill-opacity="1" /><path clip-path="url(#clip560)" d="M239.422 1182.53 Q235.81 1182.53 233.982 1186.1 Q232.176 1189.64 232.176 1196.77 Q232.176 1203.88 233.982 1207.44 Q235.81 1210.98 239.422 1210.98 Q243.056 1210.98 244.861 1207.44 Q246.69 1203.88 246.69 1196.77 Q246.69 1189.64 244.861 1186.1 Q243.056 1182.53 239.422 1182.53 M239.422 1178.83 Q245.232 1178.83 248.287 1183.44 Q251.366 1188.02 251.366 1196.77 Q251.366 1205.5 248.287 1210.1 Q245.232 1214.69 239.422 1214.69 Q233.611 1214.69 230.533 1210.1 Q227.477 1205.5 227.477 1196.77 Q227.477 1188.02 230.533 1183.44 Q233.611 1178.83 239.422 1178.83 Z" fill="#000000" fill-rule="nonzero" fill-opacity="1" /><path clip-path="url(#clip560)" d="M134.814 1324.07 Q141.18 1326.55 143.121 1328.91 Q145.063 1331.26 145.063 1335.21 L145.063 1339.89 L140.161 1339.89 L140.161 1336.45 Q140.161 1334.03 139.015 1332.7 Q137.87 1331.36 133.604 1329.74 L130.931 1328.68 L95.8558 1343.1 L95.8558 1336.9 L123.738 1325.76 L95.8558 1314.62 L95.8558 1308.41 L134.814 1324.07 Z" fill="#000000" fill-rule="nonzero" fill-opacity="1" /><path clip-path="url(#clip560)" d="M105.882 1280.02 Q106.869 1275.4 109.988 1272.83 Q113.107 1270.22 117.69 1270.22 Q124.724 1270.22 128.576 1275.05 Q132.427 1279.89 132.427 1288.8 Q132.427 1291.8 131.822 1294.98 Q131.249 1298.13 130.072 1301.5 L123.865 1301.5 Q125.425 1298.83 126.22 1295.65 Q127.016 1292.46 127.016 1288.99 Q127.016 1282.95 124.629 1279.8 Q122.242 1276.61 117.69 1276.61 Q113.489 1276.61 111.134 1279.57 Q108.746 1282.5 108.746 1287.75 L108.746 1293.29 L103.463 1293.29 L103.463 1287.5 Q103.463 1282.76 101.585 1280.24 Q99.6753 1277.73 96.1105 1277.73 Q92.4502 1277.73 90.5086 1280.34 Q88.5353 1282.92 88.5353 1287.75 Q88.5353 1290.39 89.1082 1293.42 Q89.6811 1296.44 90.8906 1300.07 L85.1615 1300.07 Q84.1429 1296.41 83.6337 1293.23 Q83.1244 1290.01 83.1244 1287.18 Q83.1244 1279.86 86.4664 1275.59 Q89.7766 1271.33 95.4421 1271.33 Q99.3888 1271.33 102.126 1273.59 Q104.831 1275.85 105.882 1280.02 Z" fill="#000000" fill-rule="nonzero" fill-opacity="1" /><path clip-path="url(#clip560)" d="M1037.37 1078.76 L1088.53 1078.76 L1088.53 1085.65 L1067.06 1085.65 L1067.06 1139.24 L1058.84 1139.24 L1058.84 1085.65 L1037.37 1085.65 L1037.37 1078.76 Z" fill="#000000" fill-rule="nonzero" fill-opacity="1" /><path clip-path="url(#clip560)" d="M1102.99 1116.44 Q1093.96 1116.44 1090.48 1118.5 Q1086.99 1120.57 1086.99 1125.55 Q1086.99 1129.52 1089.58 1131.87 Q1092.22 1134.18 1096.71 1134.18 Q1102.91 1134.18 1106.64 1129.8 Q1110.41 1125.39 1110.41 1118.1 L1110.41 1116.44 L1102.99 1116.44 M1117.86 1113.36 L1117.86 1139.24 L1110.41 1139.24 L1110.41 1132.36 Q1107.85 1136.49 1104.05 1138.47 Q1100.24 1140.42 1094.73 1140.42 Q1087.76 1140.42 1083.63 1136.53 Q1079.54 1132.6 1079.54 1126.04 Q1079.54 1118.38 1084.64 1114.49 Q1089.79 1110.6 1099.96 1110.6 L1110.41 1110.6 L1110.41 1109.87 Q1110.41 1104.73 1107 1101.93 Q1103.64 1099.1 1097.52 1099.1 Q1093.64 1099.1 1089.95 1100.03 Q1086.26 1100.96 1082.86 1102.83 L1082.86 1095.94 Q1086.95 1094.36 1090.8 1093.59 Q1094.65 1092.78 1098.29 1092.78 Q1108.14 1092.78 1113 1097.88 Q1117.86 1102.99 1117.86 1113.36 Z" fill="#000000" fill-rule="nonzero" fill-opacity="1" /><path clip-path="url(#clip560)" d="M1170.93 1111.86 L1170.93 1139.24 L1163.47 1139.24 L1163.47 1112.1 Q1163.47 1105.66 1160.96 1102.46 Q1158.45 1099.26 1153.43 1099.26 Q1147.39 1099.26 1143.91 1103.11 Q1140.42 1106.96 1140.42 1113.6 L1140.42 1139.24 L1132.93 1139.24 L1132.93 1093.87 L1140.42 1093.87 L1140.42 1100.92 Q1143.1 1096.83 1146.7 1094.8 Q1150.35 1092.78 1155.09 1092.78 Q1162.91 1092.78 1166.92 1097.64 Q1170.93 1102.46 1170.93 1111.86 Z" fill="#000000" fill-rule="nonzero" fill-opacity="1" /><path clip-path="url(#clip560)" d="M1223.51 1111.86 L1223.51 1139.24 L1216.05 1139.24 L1216.05 1112.1 Q1216.05 1105.66 1213.54 1102.46 Q1211.03 1099.26 1206.01 1099.26 Q1199.97 1099.26 1196.49 1103.11 Q1193 1106.96 1193 1113.6 L1193 1139.24 L1185.51 1139.24 L1185.51 1076.21 L1193 1076.21 L1193 1100.92 Q1195.68 1096.83 1199.28 1094.8 Q1202.93 1092.78 1207.67 1092.78 Q1215.49 1092.78 1219.5 1097.64 Q1223.51 1102.46 1223.51 1111.86 Z" fill="#000000" fill-rule="nonzero" fill-opacity="1" /><path clip-path="url(#clip560)" d="M1265.07 1078.76 L1299.83 1078.76 L1299.83 1085.65 L1273.25 1085.65 L1273.25 1103.47 L1297.23 1103.47 L1297.23 1110.36 L1273.25 1110.36 L1273.25 1139.24 L1265.07 1139.24 L1265.07 1078.76 Z" fill="#000000" fill-rule="nonzero" fill-opacity="1" /><path clip-path="url(#clip560)" d="M1307.16 1121.34 L1307.16 1093.87 L1314.61 1093.87 L1314.61 1121.05 Q1314.61 1127.5 1317.12 1130.74 Q1319.64 1133.94 1324.66 1133.94 Q1330.69 1133.94 1334.18 1130.09 Q1337.7 1126.24 1337.7 1119.6 L1337.7 1093.87 L1345.16 1093.87 L1345.16 1139.24 L1337.7 1139.24 L1337.7 1132.28 Q1334.99 1136.41 1331.38 1138.43 Q1327.82 1140.42 1323.08 1140.42 Q1315.26 1140.42 1311.21 1135.56 Q1307.16 1130.7 1307.16 1121.34 M1325.91 1092.78 L1325.91 1092.78 Z" fill="#000000" fill-rule="nonzero" fill-opacity="1" /><path clip-path="url(#clip560)" d="M1398.22 1111.86 L1398.22 1139.24 L1390.77 1139.24 L1390.77 1112.1 Q1390.77 1105.66 1388.26 1102.46 Q1385.75 1099.26 1380.72 1099.26 Q1374.69 1099.26 1371.2 1103.11 Q1367.72 1106.96 1367.72 1113.6 L1367.72 1139.24 L1360.23 1139.24 L1360.23 1093.87 L1367.72 1093.87 L1367.72 1100.92 Q1370.39 1096.83 1374 1094.8 Q1377.64 1092.78 1382.38 1092.78 Q1390.2 1092.78 1394.21 1097.64 Q1398.22 1102.46 1398.22 1111.86 Z" fill="#000000" fill-rule="nonzero" fill-opacity="1" /><path clip-path="url(#clip560)" d="M1445.74 1095.61 L1445.74 1102.58 Q1442.58 1100.84 1439.38 1099.99 Q1436.22 1099.1 1432.98 1099.1 Q1425.73 1099.1 1421.72 1103.72 Q1417.71 1108.29 1417.71 1116.6 Q1417.71 1124.9 1421.72 1129.52 Q1425.73 1134.1 1432.98 1134.1 Q1436.22 1134.1 1439.38 1133.25 Q1442.58 1132.36 1445.74 1130.61 L1445.74 1137.5 Q1442.62 1138.96 1439.26 1139.69 Q1435.94 1140.42 1432.17 1140.42 Q1421.92 1140.42 1415.89 1133.98 Q1409.85 1127.54 1409.85 1116.6 Q1409.85 1105.5 1415.93 1099.14 Q1422.04 1092.78 1432.66 1092.78 Q1436.1 1092.78 1439.38 1093.51 Q1442.66 1094.2 1445.74 1095.61 Z" fill="#000000" fill-rule="nonzero" fill-opacity="1" /><path clip-path="url(#clip560)" d="M1466.08 1080.99 L1466.08 1093.87 L1481.43 1093.87 L1481.43 1099.67 L1466.08 1099.67 L1466.08 1124.29 Q1466.08 1129.84 1467.57 1131.42 Q1469.11 1133 1473.77 1133 L1481.43 1133 L1481.43 1139.24 L1473.77 1139.24 Q1465.14 1139.24 1461.86 1136.04 Q1458.58 1132.8 1458.58 1124.29 L1458.58 1099.67 L1453.11 1099.67 L1453.11 1093.87 L1458.58 1093.87 L1458.58 1080.99 L1466.08 1080.99 Z" fill="#000000" fill-rule="nonzero" fill-opacity="1" /><path clip-path="url(#clip560)" d="M1491.23 1093.87 L1498.69 1093.87 L1498.69 1139.24 L1491.23 1139.24 L1491.23 1093.87 M1491.23 1076.21 L1498.69 1076.21 L1498.69 1085.65 L1491.23 1085.65 L1491.23 1076.21 Z" fill="#000000" fill-rule="nonzero" fill-opacity="1" /><path clip-path="url(#clip560)" d="M1531.86 1099.1 Q1525.87 1099.1 1522.38 1103.8 Q1518.9 1108.46 1518.9 1116.6 Q1518.9 1124.74 1522.34 1129.44 Q1525.83 1134.1 1531.86 1134.1 Q1537.82 1134.1 1541.3 1129.4 Q1544.78 1124.7 1544.78 1116.6 Q1544.78 1108.54 1541.3 1103.84 Q1537.82 1099.1 1531.86 1099.1 M1531.86 1092.78 Q1541.58 1092.78 1547.13 1099.1 Q1552.68 1105.42 1552.68 1116.6 Q1552.68 1127.74 1547.13 1134.1 Q1541.58 1140.42 1531.86 1140.42 Q1522.1 1140.42 1516.55 1134.1 Q1511.04 1127.74 1511.04 1116.6 Q1511.04 1105.42 1516.55 1099.1 Q1522.1 1092.78 1531.86 1092.78 Z" fill="#000000" fill-rule="nonzero" fill-opacity="1" /><path clip-path="url(#clip560)" d="M1602.75 1111.86 L1602.75 1139.24 L1595.3 1139.24 L1595.3 1112.1 Q1595.3 1105.66 1592.79 1102.46 Q1590.28 1099.26 1585.25 1099.26 Q1579.22 1099.26 1575.73 1103.11 Q1572.25 1106.96 1572.25 1113.6 L1572.25 1139.24 L1564.76 1139.24 L1564.76 1093.87 L1572.25 1093.87 L1572.25 1100.92 Q1574.92 1096.83 1578.53 1094.8 Q1582.17 1092.78 1586.91 1092.78 Q1594.73 1092.78 1598.74 1097.64 Q1602.75 1102.46 1602.75 1111.86 Z" fill="#000000" fill-rule="nonzero" fill-opacity="1" /><polyline clip-path="url(#clip564)" style="stroke:#009af9; stroke-linecap:round; stroke-linejoin:round; stroke-width:4; stroke-opacity:1; fill:none" points="345.82,1416.58 365.502,1392.73 385.184,1369.79 404.865,1348.14 424.547,1328.08 444.228,1309.78 463.91,1293.34 483.592,1278.77 503.273,1266.01 522.955,1254.95 542.637,1245.45 562.318,1237.35 582,1230.5 601.681,1224.73 621.363,1219.9 641.045,1215.86 660.726,1212.51 680.408,1209.72 700.09,1207.42 719.771,1205.52 739.453,1203.95 759.135,1202.66 778.816,1201.59 798.498,1200.72 818.179,1200 837.861,1199.41 857.543,1198.93 877.224,1198.53 896.906,1198.21 916.588,1197.94 936.269,1197.72 955.951,1197.54 975.632,1197.4 995.314,1197.28 1015,1197.18 1034.68,1197.1 1054.36,1197.03 1074.04,1196.98 1093.72,1196.93 1113.4,1196.9 1133.09,1196.87 1152.77,1196.84 1172.45,1196.82 1192.13,1196.81 1211.81,1196.79 1231.49,1196.78 1251.18,1196.77 1270.86,1196.77 1290.54,1196.76 1310.22,1196.76 1329.9,1196.75 1349.58,1196.75 1369.26,1196.75 1388.95,1196.74 1408.63,1196.74 1428.31,1196.74 1447.99,1196.74 1467.67,1196.74 1487.35,1196.74 1507.04,1196.74 1526.72,1196.74 1546.4,1196.74 1566.08,1196.74 1585.76,1196.74 1605.44,1196.74 1625.13,1196.74 1644.81,1196.74 1664.49,1196.73 1684.17,1196.73 1703.85,1196.73 1723.53,1196.73 1743.22,1196.73 1762.9,1196.73 1782.58,1196.73 1802.26,1196.73 1821.94,1196.73 1841.62,1196.73 1861.31,1196.73 1880.99,1196.73 1900.67,1196.73 1920.35,1196.73 1940.03,1196.73 1959.71,1196.73 1979.4,1196.73 1999.08,1196.73 2018.76,1196.73 2038.44,1196.73 2058.12,1196.73 2077.8,1196.73 2097.49,1196.73 2117.17,1196.73 2136.85,1196.73 2156.53,1196.73 2176.21,1196.73 2195.89,1196.73 2215.57,1196.73 2235.26,1196.73 2254.94,1196.73 2274.62,1196.73 2294.3,1196.73 "/>
</svg>
